<?xml version="1.0" encoding="UTF-8" standalone="no"?>
<!-- Created with Inkscape (http://www.inkscape.org/) -->

<svg
   xmlns:dc="http://purl.org/dc/elements/1.1/"
   xmlns:cc="http://creativecommons.org/ns#"
   xmlns:rdf="http://www.w3.org/1999/02/22-rdf-syntax-ns#"
   xmlns:svg="http://www.w3.org/2000/svg"
   xmlns="http://www.w3.org/2000/svg"
   xmlns:sodipodi="http://sodipodi.sourceforge.net/DTD/sodipodi-0.dtd"
   xmlns:inkscape="http://www.inkscape.org/namespaces/inkscape"
   id="svg2"
   version="1.1"
   inkscape:version="0.91 r13725"
   width="100"
   height="180"
   viewBox="0 0 100 180"
   sodipodi:docname="corn_pattern_2.svg">
  <metadata
     id="metadata8">
    <rdf:RDF>
      <cc:Work
         rdf:about="">
        <dc:format>image/svg+xml</dc:format>
        <dc:type
           rdf:resource="http://purl.org/dc/dcmitype/StillImage" />
        <dc:title></dc:title>
      </cc:Work>
    </rdf:RDF>
  </metadata>
  <defs
     id="defs6">
    <marker
       inkscape:stockid="Arrow1Lstart"
       orient="auto"
       refY="0"
       refX="0"
       id="marker5242"
       style="overflow:visible"
       inkscape:isstock="true">
      <path
         id="path5244"
         d="M 0,0 5,-5 -12.5,0 5,5 0,0 Z"
         style="fill-rule:evenodd;stroke:#000000;stroke-width:1pt"
         transform="matrix(0.8,0,0,0.8,10,0)"
         inkscape:connector-curvature="0" />
    </marker>
    <marker
       inkscape:stockid="Arrow1Lstart"
       orient="auto"
       refY="0"
       refX="0"
       id="marker5214"
       style="overflow:visible"
       inkscape:isstock="true">
      <path
         id="path5216"
         d="M 0,0 5,-5 -12.5,0 5,5 0,0 Z"
         style="fill-rule:evenodd;stroke:#000000;stroke-width:1pt"
         transform="matrix(0.8,0,0,0.8,10,0)"
         inkscape:connector-curvature="0" />
    </marker>
    <marker
       inkscape:stockid="Arrow1Lstart"
       orient="auto"
       refY="0"
       refX="0"
       id="marker5192"
       style="overflow:visible"
       inkscape:isstock="true">
      <path
         id="path5194"
         d="M 0,0 5,-5 -12.5,0 5,5 0,0 Z"
         style="fill-rule:evenodd;stroke:#000000;stroke-width:1pt"
         transform="matrix(0.8,0,0,0.8,10,0)"
         inkscape:connector-curvature="0" />
    </marker>
    <marker
       inkscape:stockid="Arrow1Lstart"
       orient="auto"
       refY="0"
       refX="0"
       id="marker5176"
       style="overflow:visible"
       inkscape:isstock="true">
      <path
         id="path5178"
         d="M 0,0 5,-5 -12.5,0 5,5 0,0 Z"
         style="fill-rule:evenodd;stroke:#000000;stroke-width:1pt"
         transform="matrix(0.8,0,0,0.8,10,0)"
         inkscape:connector-curvature="0" />
    </marker>
    <marker
       inkscape:stockid="Arrow1Lstart"
       orient="auto"
       refY="0"
       refX="0"
       id="Arrow1Lstart"
       style="overflow:visible"
       inkscape:isstock="true">
      <path
         id="path4912"
         d="M 0,0 5,-5 -12.5,0 5,5 0,0 Z"
         style="fill-rule:evenodd;stroke:#000000;stroke-width:1pt"
         transform="matrix(0.8,0,0,0.8,10,0)"
         inkscape:connector-curvature="0" />
    </marker>
    <inkscape:path-effect
       effect="skeletal"
       id="path-effect4855"
       is_visible="true"
       pattern="M 0,0 1,0"
       copytype="single_stretched"
       prop_scale="1"
       scale_y_rel="false"
       spacing="0"
       normal_offset="0"
       tang_offset="0"
       prop_units="false"
       vertical_pattern="false"
       fuse_tolerance="0" />
    <inkscape:path-effect
       effect="skeletal"
       id="path-effect4851"
       is_visible="true"
       pattern="M 0,0 1,0"
       copytype="single_stretched"
       prop_scale="1"
       scale_y_rel="false"
       spacing="0"
       normal_offset="0"
       tang_offset="0"
       prop_units="false"
       vertical_pattern="false"
       fuse_tolerance="0" />
    <inkscape:path-effect
       effect="skeletal"
       id="path-effect4847"
       is_visible="true"
       pattern="M 0,0 1,0"
       copytype="single_stretched"
       prop_scale="1"
       scale_y_rel="false"
       spacing="0"
       normal_offset="0"
       tang_offset="0"
       prop_units="false"
       vertical_pattern="false"
       fuse_tolerance="0" />
    <inkscape:path-effect
       effect="skeletal"
       id="path-effect4843"
       is_visible="true"
       pattern="M 0,0 1,0"
       copytype="single_stretched"
       prop_scale="1"
       scale_y_rel="false"
       spacing="0"
       normal_offset="0"
       tang_offset="0"
       prop_units="false"
       vertical_pattern="false"
       fuse_tolerance="0" />
    <inkscape:path-effect
       fuse_tolerance="0"
       vertical_pattern="false"
       prop_units="false"
       tang_offset="0"
       normal_offset="0"
       spacing="0"
       scale_y_rel="false"
       prop_scale="1"
       copytype="single_stretched"
       pattern="m 20,-100 1,0"
       is_visible="true"
       id="path-effect4839"
       effect="skeletal" />
    <inkscape:path-effect
       effect="skeletal"
       id="path-effect4835"
       is_visible="true"
       pattern="M 0,0 1,0"
       copytype="single_stretched"
       prop_scale="1"
       scale_y_rel="false"
       spacing="0"
       normal_offset="0"
       tang_offset="0"
       prop_units="false"
       vertical_pattern="false"
       fuse_tolerance="0" />
    <inkscape:path-effect
       effect="skeletal"
       id="path-effect4831"
       is_visible="true"
       pattern="M 0,0 1,0"
       copytype="single_stretched"
       prop_scale="1"
       scale_y_rel="false"
       spacing="0"
       normal_offset="0"
       tang_offset="0"
       prop_units="false"
       vertical_pattern="false"
       fuse_tolerance="0" />
    <inkscape:path-effect
       effect="skeletal"
       id="path-effect4827"
       is_visible="true"
       pattern="M 0,0 1,0"
       copytype="single_stretched"
       prop_scale="1"
       scale_y_rel="false"
       spacing="0"
       normal_offset="0"
       tang_offset="0"
       prop_units="false"
       vertical_pattern="false"
       fuse_tolerance="0" />
    <inkscape:path-effect
       effect="skeletal"
       id="path-effect4823"
       is_visible="true"
       pattern="M 0,0 1,0"
       copytype="single_stretched"
       prop_scale="1"
       scale_y_rel="false"
       spacing="0"
       normal_offset="0"
       tang_offset="0"
       prop_units="false"
       vertical_pattern="false"
       fuse_tolerance="0" />
    <inkscape:path-effect
       effect="skeletal"
       id="path-effect4819"
       is_visible="true"
       pattern="M 0,0 1,0"
       copytype="single_stretched"
       prop_scale="1"
       scale_y_rel="false"
       spacing="0"
       normal_offset="0"
       tang_offset="0"
       prop_units="false"
       vertical_pattern="false"
       fuse_tolerance="0" />
    <inkscape:path-effect
       effect="skeletal"
       id="path-effect4815"
       is_visible="true"
       pattern="M 0,0 1,0"
       copytype="single_stretched"
       prop_scale="1"
       scale_y_rel="false"
       spacing="0"
       normal_offset="0"
       tang_offset="0"
       prop_units="false"
       vertical_pattern="false"
       fuse_tolerance="0" />
    <inkscape:path-effect
       effect="skeletal"
       id="path-effect4811"
       is_visible="true"
       pattern="M 0,0 1,0"
       copytype="single_stretched"
       prop_scale="1"
       scale_y_rel="false"
       spacing="0"
       normal_offset="0"
       tang_offset="0"
       prop_units="false"
       vertical_pattern="false"
       fuse_tolerance="0" />
    <inkscape:path-effect
       effect="skeletal"
       id="path-effect4807"
       is_visible="true"
       pattern="M 0,0 1,0"
       copytype="single_stretched"
       prop_scale="1"
       scale_y_rel="false"
       spacing="0"
       normal_offset="0"
       tang_offset="0"
       prop_units="false"
       vertical_pattern="false"
       fuse_tolerance="0" />
    <inkscape:path-effect
       effect="skeletal"
       id="path-effect4803"
       is_visible="true"
       pattern="M 0,0 1,0"
       copytype="single_stretched"
       prop_scale="1"
       scale_y_rel="false"
       spacing="0"
       normal_offset="0"
       tang_offset="0"
       prop_units="false"
       vertical_pattern="false"
       fuse_tolerance="0" />
    <inkscape:path-effect
       effect="skeletal"
       id="path-effect4799"
       is_visible="true"
       pattern="M 0,0 1,0"
       copytype="single_stretched"
       prop_scale="1"
       scale_y_rel="false"
       spacing="0"
       normal_offset="0"
       tang_offset="0"
       prop_units="false"
       vertical_pattern="false"
       fuse_tolerance="0" />
    <inkscape:path-effect
       effect="skeletal"
       id="path-effect4795"
       is_visible="true"
       pattern="M 0,0 1,0"
       copytype="single_stretched"
       prop_scale="1"
       scale_y_rel="false"
       spacing="0"
       normal_offset="0"
       tang_offset="0"
       prop_units="false"
       vertical_pattern="false"
       fuse_tolerance="0" />
    <inkscape:path-effect
       effect="skeletal"
       id="path-effect4791"
       is_visible="true"
       pattern="M 0,0 1,0"
       copytype="single_stretched"
       prop_scale="1"
       scale_y_rel="false"
       spacing="0"
       normal_offset="0"
       tang_offset="0"
       prop_units="false"
       vertical_pattern="false"
       fuse_tolerance="0" />
    <inkscape:path-effect
       effect="skeletal"
       id="path-effect4787"
       is_visible="true"
       pattern="M 0,0 1,0"
       copytype="single_stretched"
       prop_scale="1"
       scale_y_rel="false"
       spacing="0"
       normal_offset="0"
       tang_offset="0"
       prop_units="false"
       vertical_pattern="false"
       fuse_tolerance="0" />
    <inkscape:path-effect
       effect="skeletal"
       id="path-effect4783"
       is_visible="true"
       pattern="M 0,0 1,0"
       copytype="single_stretched"
       prop_scale="1"
       scale_y_rel="false"
       spacing="0"
       normal_offset="0"
       tang_offset="0"
       prop_units="false"
       vertical_pattern="false"
       fuse_tolerance="0" />
    <inkscape:path-effect
       effect="skeletal"
       id="path-effect4779"
       is_visible="true"
       pattern="M 0,0 1,0"
       copytype="single_stretched"
       prop_scale="1"
       scale_y_rel="false"
       spacing="0"
       normal_offset="0"
       tang_offset="0"
       prop_units="false"
       vertical_pattern="false"
       fuse_tolerance="0" />
    <inkscape:path-effect
       effect="skeletal"
       id="path-effect4774"
       is_visible="true"
       pattern="m 12.938295,-182.5678 1,0"
       copytype="single_stretched"
       prop_scale="1"
       scale_y_rel="false"
       spacing="0"
       normal_offset="0"
       tang_offset="0"
       prop_units="false"
       vertical_pattern="false"
       fuse_tolerance="0" />
    <inkscape:path-effect
       fuse_tolerance="0"
       vertical_pattern="false"
       prop_units="false"
       tang_offset="0"
       normal_offset="0"
       spacing="0"
       scale_y_rel="false"
       prop_scale="1"
       copytype="single_stretched"
       pattern="m 12.938295,-182.5678 1,0"
       is_visible="true"
       id="path-effect4759"
       effect="skeletal" />
    <inkscape:path-effect
       fuse_tolerance="0"
       vertical_pattern="false"
       prop_units="false"
       tang_offset="0"
       normal_offset="0"
       spacing="0"
       scale_y_rel="false"
       prop_scale="1"
       copytype="single_stretched"
       pattern="M 0,0 1,0"
       is_visible="true"
       id="path-effect4722"
       effect="skeletal" />
    <inkscape:path-effect
       fuse_tolerance="0"
       vertical_pattern="false"
       prop_units="false"
       tang_offset="0"
       normal_offset="0"
       spacing="0"
       scale_y_rel="false"
       prop_scale="1"
       copytype="single_stretched"
       pattern="m -45.061705,-218.5678 1,0"
       is_visible="true"
       id="path-effect4710"
       effect="skeletal" />
    <inkscape:path-effect
       effect="skeletal"
       id="path-effect4706"
       is_visible="true"
       pattern="m -47.061705,-182.5678 1,0"
       copytype="single_stretched"
       prop_scale="1"
       scale_y_rel="false"
       spacing="0"
       normal_offset="0"
       tang_offset="0"
       prop_units="false"
       vertical_pattern="false"
       fuse_tolerance="0" />
    <inkscape:path-effect
       fuse_tolerance="0"
       vertical_pattern="false"
       prop_units="false"
       tang_offset="0"
       normal_offset="0"
       spacing="0"
       scale_y_rel="false"
       prop_scale="1"
       copytype="single_stretched"
       pattern="m -51.061706,-144.5678 1,0"
       is_visible="true"
       id="path-effect4702"
       effect="skeletal" />
    <inkscape:path-effect
       effect="skeletal"
       id="path-effect4698"
       is_visible="true"
       pattern="m -55.061706,-94.5678 1,0"
       copytype="single_stretched"
       prop_scale="1"
       scale_y_rel="false"
       spacing="0"
       normal_offset="0"
       tang_offset="0"
       prop_units="false"
       vertical_pattern="false"
       fuse_tolerance="0" />
    <inkscape:path-effect
       fuse_tolerance="0"
       vertical_pattern="false"
       prop_units="false"
       tang_offset="0"
       normal_offset="0"
       spacing="0"
       scale_y_rel="false"
       prop_scale="1"
       copytype="single_stretched"
       pattern="m -57.061705,-46.567797 1,0"
       is_visible="true"
       id="path-effect4694"
       effect="skeletal" />
    <inkscape:path-effect
       effect="skeletal"
       id="path-effect4690"
       is_visible="true"
       pattern="m -60,0 1,0"
       copytype="single_stretched"
       prop_scale="1"
       scale_y_rel="false"
       spacing="0"
       normal_offset="0"
       tang_offset="0"
       prop_units="false"
       vertical_pattern="false"
       fuse_tolerance="0" />
    <inkscape:path-effect
       effect="skeletal"
       id="path-effect4686"
       is_visible="true"
       pattern="m -60,0 1,0"
       copytype="single_stretched"
       prop_scale="1"
       scale_y_rel="false"
       spacing="0"
       normal_offset="0"
       tang_offset="0"
       prop_units="false"
       vertical_pattern="false"
       fuse_tolerance="0" />
    <inkscape:path-effect
       fuse_tolerance="0"
       vertical_pattern="false"
       prop_units="false"
       tang_offset="0"
       normal_offset="0"
       spacing="0"
       scale_y_rel="false"
       prop_scale="1"
       copytype="single_stretched"
       pattern="m -56.641949,10.074153 1,0"
       is_visible="true"
       id="path-effect4664"
       effect="skeletal" />
    <inkscape:path-effect
       effect="skeletal"
       id="path-effect4660"
       is_visible="true"
       pattern="m -45.061705,-218.5678 1,0"
       copytype="single_stretched"
       prop_scale="1"
       scale_y_rel="false"
       spacing="0"
       normal_offset="0"
       tang_offset="0"
       prop_units="false"
       vertical_pattern="false"
       fuse_tolerance="0" />
    <inkscape:path-effect
       fuse_tolerance="0"
       vertical_pattern="false"
       prop_units="false"
       tang_offset="0"
       normal_offset="0"
       spacing="0"
       scale_y_rel="false"
       prop_scale="1"
       copytype="single_stretched"
       pattern="m -47.061705,-182.5678 1,0"
       is_visible="true"
       id="path-effect4656"
       effect="skeletal" />
    <inkscape:path-effect
       effect="skeletal"
       id="path-effect4652"
       is_visible="true"
       pattern="m -51.061706,-144.5678 1,0"
       copytype="single_stretched"
       prop_scale="1"
       scale_y_rel="false"
       spacing="0"
       normal_offset="0"
       tang_offset="0"
       prop_units="false"
       vertical_pattern="false"
       fuse_tolerance="0" />
    <inkscape:path-effect
       fuse_tolerance="0"
       vertical_pattern="false"
       prop_units="false"
       tang_offset="0"
       normal_offset="0"
       spacing="0"
       scale_y_rel="false"
       prop_scale="1"
       copytype="single_stretched"
       pattern="m -55.061706,-94.5678 1,0"
       is_visible="true"
       id="path-effect4648"
       effect="skeletal" />
    <inkscape:path-effect
       effect="skeletal"
       id="path-effect4644"
       is_visible="true"
       pattern="m -57.061705,-46.567797 1,0"
       copytype="single_stretched"
       prop_scale="1"
       scale_y_rel="false"
       spacing="0"
       normal_offset="0"
       tang_offset="0"
       prop_units="false"
       vertical_pattern="false"
       fuse_tolerance="0" />
    <inkscape:path-effect
       effect="skeletal"
       id="path-effect4614"
       is_visible="true"
       pattern="M 0,0 1,0"
       copytype="single_stretched"
       prop_scale="1"
       scale_y_rel="false"
       spacing="0"
       normal_offset="0"
       tang_offset="0"
       prop_units="false"
       vertical_pattern="false"
       fuse_tolerance="0" />
    <inkscape:path-effect
       effect="skeletal"
       id="path-effect4600"
       is_visible="true"
       pattern="m -56.641949,10.074153 1,0"
       copytype="single_stretched"
       prop_scale="1"
       scale_y_rel="false"
       spacing="0"
       normal_offset="0"
       tang_offset="0"
       prop_units="false"
       vertical_pattern="false"
       fuse_tolerance="0" />
    <inkscape:path-effect
       fuse_tolerance="0"
       vertical_pattern="false"
       prop_units="false"
       tang_offset="0"
       normal_offset="0"
       spacing="0"
       scale_y_rel="false"
       prop_scale="1"
       copytype="single_stretched"
       pattern="m -45.061705,-218.5678 1,0"
       is_visible="true"
       id="path-effect4596"
       effect="skeletal" />
    <inkscape:path-effect
       effect="skeletal"
       id="path-effect4592"
       is_visible="true"
       pattern="m -47.061705,-182.5678 1,0"
       copytype="single_stretched"
       prop_scale="1"
       scale_y_rel="false"
       spacing="0"
       normal_offset="0"
       tang_offset="0"
       prop_units="false"
       vertical_pattern="false"
       fuse_tolerance="0" />
    <inkscape:path-effect
       fuse_tolerance="0"
       vertical_pattern="false"
       prop_units="false"
       tang_offset="0"
       normal_offset="0"
       spacing="0"
       scale_y_rel="false"
       prop_scale="1"
       copytype="single_stretched"
       pattern="m -51.061706,-144.5678 1,0"
       is_visible="true"
       id="path-effect4588"
       effect="skeletal" />
    <inkscape:path-effect
       effect="skeletal"
       id="path-effect4584"
       is_visible="true"
       pattern="m -55.061706,-94.5678 1,0"
       copytype="single_stretched"
       prop_scale="1"
       scale_y_rel="false"
       spacing="0"
       normal_offset="0"
       tang_offset="0"
       prop_units="false"
       vertical_pattern="false"
       fuse_tolerance="0" />
    <inkscape:path-effect
       fuse_tolerance="0"
       vertical_pattern="false"
       prop_units="false"
       tang_offset="0"
       normal_offset="0"
       spacing="0"
       scale_y_rel="false"
       prop_scale="1"
       copytype="single_stretched"
       pattern="m -57.061705,-46.567797 1,0"
       is_visible="true"
       id="path-effect4580"
       effect="skeletal" />
    <inkscape:path-effect
       effect="skeletal"
       id="path-effect4576"
       is_visible="true"
       pattern="m -60,0 1,0"
       copytype="single_stretched"
       prop_scale="1"
       scale_y_rel="false"
       spacing="0"
       normal_offset="0"
       tang_offset="0"
       prop_units="false"
       vertical_pattern="false"
       fuse_tolerance="0" />
    <inkscape:path-effect
       effect="skeletal"
       id="path-effect4572"
       is_visible="true"
       pattern="m -60,0 1,0"
       copytype="single_stretched"
       prop_scale="1"
       scale_y_rel="false"
       spacing="0"
       normal_offset="0"
       tang_offset="0"
       prop_units="false"
       vertical_pattern="false"
       fuse_tolerance="0" />
    <inkscape:path-effect
       fuse_tolerance="0"
       vertical_pattern="false"
       prop_units="false"
       tang_offset="0"
       normal_offset="0"
       spacing="0"
       scale_y_rel="false"
       prop_scale="1"
       copytype="single_stretched"
       pattern="M 0,0 1,0"
       is_visible="true"
       id="path-effect4567"
       effect="skeletal" />
    <inkscape:path-effect
       fuse_tolerance="0"
       vertical_pattern="false"
       prop_units="false"
       tang_offset="0"
       normal_offset="0"
       spacing="0"
       scale_y_rel="false"
       prop_scale="1"
       copytype="single_stretched"
       pattern="M 0,0 1,0"
       is_visible="true"
       id="path-effect4564"
       effect="skeletal" />
    <inkscape:path-effect
       effect="skeletal"
       id="path-effect4561"
       is_visible="true"
       pattern="m 2.9382945,-46.567797 1,0"
       copytype="single_stretched"
       prop_scale="1"
       scale_y_rel="false"
       spacing="0"
       normal_offset="0"
       tang_offset="0"
       prop_units="false"
       vertical_pattern="false"
       fuse_tolerance="0" />
    <inkscape:path-effect
       fuse_tolerance="0"
       vertical_pattern="false"
       prop_units="false"
       tang_offset="0"
       normal_offset="0"
       spacing="0"
       scale_y_rel="false"
       prop_scale="1"
       copytype="single_stretched"
       pattern="m 4.9382945,-94.5678 1,0"
       is_visible="true"
       id="path-effect4558"
       effect="skeletal" />
    <inkscape:path-effect
       effect="skeletal"
       id="path-effect4555"
       is_visible="true"
       pattern="m 8.9382945,-144.5678 1,0"
       copytype="single_stretched"
       prop_scale="1"
       scale_y_rel="false"
       spacing="0"
       normal_offset="0"
       tang_offset="0"
       prop_units="false"
       vertical_pattern="false"
       fuse_tolerance="0" />
    <inkscape:path-effect
       fuse_tolerance="0"
       vertical_pattern="false"
       prop_units="false"
       tang_offset="0"
       normal_offset="0"
       spacing="0"
       scale_y_rel="false"
       prop_scale="1"
       copytype="single_stretched"
       pattern="m 12.938295,-182.5678 1,0"
       is_visible="true"
       id="path-effect4552"
       effect="skeletal" />
    <inkscape:path-effect
       effect="skeletal"
       id="path-effect4549"
       is_visible="true"
       pattern="m 14.938295,-218.5678 1,0"
       copytype="single_stretched"
       prop_scale="1"
       scale_y_rel="false"
       spacing="0"
       normal_offset="0"
       tang_offset="0"
       prop_units="false"
       vertical_pattern="false"
       fuse_tolerance="0" />
    <inkscape:path-effect
       fuse_tolerance="0"
       vertical_pattern="false"
       prop_units="false"
       tang_offset="0"
       normal_offset="0"
       spacing="0"
       scale_y_rel="false"
       prop_scale="1"
       copytype="single_stretched"
       pattern="M 0,0 1,0"
       is_visible="true"
       id="path-effect4546"
       effect="skeletal" />
    <inkscape:path-effect
       effect="skeletal"
       id="path-effect4543"
       is_visible="true"
       pattern="m 0,-14 1,0"
       copytype="single_stretched"
       prop_scale="1"
       scale_y_rel="false"
       spacing="0"
       normal_offset="0"
       tang_offset="0"
       prop_units="false"
       vertical_pattern="false"
       fuse_tolerance="0" />
    <inkscape:path-effect
       effect="skeletal"
       id="path-effect4349"
       is_visible="true"
       pattern="m -60,-14 1,0"
       copytype="single_stretched"
       prop_scale="1"
       scale_y_rel="false"
       spacing="0"
       normal_offset="0"
       tang_offset="0"
       prop_units="false"
       vertical_pattern="false"
       fuse_tolerance="0" />
    <inkscape:path-effect
       fuse_tolerance="0"
       vertical_pattern="false"
       prop_units="false"
       tang_offset="0"
       normal_offset="0"
       spacing="0"
       scale_y_rel="false"
       prop_scale="1"
       copytype="single_stretched"
       pattern="m -56.641949,10.074153 1,0"
       is_visible="true"
       id="path-effect4345"
       effect="skeletal" />
    <inkscape:path-effect
       effect="skeletal"
       id="path-effect4341"
       is_visible="true"
       pattern="m -45.061705,-218.5678 1,0"
       copytype="single_stretched"
       prop_scale="1"
       scale_y_rel="false"
       spacing="0"
       normal_offset="0"
       tang_offset="0"
       prop_units="false"
       vertical_pattern="false"
       fuse_tolerance="0" />
    <inkscape:path-effect
       fuse_tolerance="0"
       vertical_pattern="false"
       prop_units="false"
       tang_offset="0"
       normal_offset="0"
       spacing="0"
       scale_y_rel="false"
       prop_scale="1"
       copytype="single_stretched"
       pattern="m -47.061705,-182.5678 1,0"
       is_visible="true"
       id="path-effect4337"
       effect="skeletal" />
    <inkscape:path-effect
       effect="skeletal"
       id="path-effect4333"
       is_visible="true"
       pattern="m -51.061706,-144.5678 1,0"
       copytype="single_stretched"
       prop_scale="1"
       scale_y_rel="false"
       spacing="0"
       normal_offset="0"
       tang_offset="0"
       prop_units="false"
       vertical_pattern="false"
       fuse_tolerance="0" />
    <inkscape:path-effect
       fuse_tolerance="0"
       vertical_pattern="false"
       prop_units="false"
       tang_offset="0"
       normal_offset="0"
       spacing="0"
       scale_y_rel="false"
       prop_scale="1"
       copytype="single_stretched"
       pattern="m -55.061706,-94.5678 1,0"
       is_visible="true"
       id="path-effect4329"
       effect="skeletal" />
    <inkscape:path-effect
       effect="skeletal"
       id="path-effect4325"
       is_visible="true"
       pattern="m -57.061705,-46.567797 1,0"
       copytype="single_stretched"
       prop_scale="1"
       scale_y_rel="false"
       spacing="0"
       normal_offset="0"
       tang_offset="0"
       prop_units="false"
       vertical_pattern="false"
       fuse_tolerance="0" />
    <inkscape:path-effect
       fuse_tolerance="0"
       vertical_pattern="false"
       prop_units="false"
       tang_offset="0"
       normal_offset="0"
       spacing="0"
       scale_y_rel="false"
       prop_scale="1"
       copytype="single_stretched"
       pattern="m -60,0 1,0"
       is_visible="true"
       id="path-effect4321"
       effect="skeletal" />
    <inkscape:path-effect
       fuse_tolerance="0"
       vertical_pattern="false"
       prop_units="false"
       tang_offset="0"
       normal_offset="0"
       spacing="0"
       scale_y_rel="false"
       prop_scale="1"
       copytype="single_stretched"
       pattern="m -60,0 1,0"
       is_visible="true"
       id="path-effect4317"
       effect="skeletal" />
    <inkscape:path-effect
       fuse_tolerance="0"
       vertical_pattern="false"
       prop_units="false"
       tang_offset="0"
       normal_offset="0"
       spacing="0"
       scale_y_rel="false"
       prop_scale="1"
       copytype="single_stretched"
       pattern="m 0,-14 1,0"
       is_visible="true"
       id="path-effect4313"
       effect="skeletal" />
    <inkscape:path-effect
       effect="skeletal"
       id="path-effect4309"
       is_visible="true"
       pattern="M 0,0 1,0"
       copytype="single_stretched"
       prop_scale="1"
       scale_y_rel="false"
       spacing="0"
       normal_offset="0"
       tang_offset="0"
       prop_units="false"
       vertical_pattern="false"
       fuse_tolerance="0" />
    <inkscape:path-effect
       fuse_tolerance="0"
       vertical_pattern="false"
       prop_units="false"
       tang_offset="0"
       normal_offset="0"
       spacing="0"
       scale_y_rel="false"
       prop_scale="1"
       copytype="single_stretched"
       pattern="m 14.938295,-218.5678 1,0"
       is_visible="true"
       id="path-effect4305"
       effect="skeletal" />
    <inkscape:path-effect
       effect="skeletal"
       id="path-effect4301"
       is_visible="true"
       pattern="m 12.938295,-182.5678 1,0"
       copytype="single_stretched"
       prop_scale="1"
       scale_y_rel="false"
       spacing="0"
       normal_offset="0"
       tang_offset="0"
       prop_units="false"
       vertical_pattern="false"
       fuse_tolerance="0" />
    <inkscape:path-effect
       fuse_tolerance="0"
       vertical_pattern="false"
       prop_units="false"
       tang_offset="0"
       normal_offset="0"
       spacing="0"
       scale_y_rel="false"
       prop_scale="1"
       copytype="single_stretched"
       pattern="m 8.9382945,-144.5678 1,0"
       is_visible="true"
       id="path-effect4297"
       effect="skeletal" />
    <inkscape:path-effect
       effect="skeletal"
       id="path-effect4293"
       is_visible="true"
       pattern="m 4.9382945,-94.5678 1,0"
       copytype="single_stretched"
       prop_scale="1"
       scale_y_rel="false"
       spacing="0"
       normal_offset="0"
       tang_offset="0"
       prop_units="false"
       vertical_pattern="false"
       fuse_tolerance="0" />
    <inkscape:path-effect
       fuse_tolerance="0"
       vertical_pattern="false"
       prop_units="false"
       tang_offset="0"
       normal_offset="0"
       spacing="0"
       scale_y_rel="false"
       prop_scale="1"
       copytype="single_stretched"
       pattern="m 2.9382945,-46.567797 1,0"
       is_visible="true"
       id="path-effect4289"
       effect="skeletal" />
    <inkscape:path-effect
       effect="skeletal"
       id="path-effect4285"
       is_visible="true"
       pattern="M 0,0 1,0"
       copytype="single_stretched"
       prop_scale="1"
       scale_y_rel="false"
       spacing="0"
       normal_offset="0"
       tang_offset="0"
       prop_units="false"
       vertical_pattern="false"
       fuse_tolerance="0" />
    <inkscape:path-effect
       effect="skeletal"
       id="path-effect4281"
       is_visible="true"
       pattern="M 0,0 1,0"
       copytype="single_stretched"
       prop_scale="1"
       scale_y_rel="false"
       spacing="0"
       normal_offset="0"
       tang_offset="0"
       prop_units="false"
       vertical_pattern="false"
       fuse_tolerance="0" />
    <inkscape:path-effect
       effect="skeletal"
       id="path-effect4277"
       is_visible="true"
       pattern="M 0,0 1,0"
       copytype="single_stretched"
       prop_scale="1"
       scale_y_rel="false"
       spacing="0"
       normal_offset="0"
       tang_offset="0"
       prop_units="false"
       vertical_pattern="false"
       fuse_tolerance="0" />
    <inkscape:path-effect
       effect="skeletal"
       id="path-effect4273"
       is_visible="true"
       pattern="M 0,0 1,0"
       copytype="single_stretched"
       prop_scale="1"
       scale_y_rel="false"
       spacing="0"
       normal_offset="0"
       tang_offset="0"
       prop_units="false"
       vertical_pattern="false"
       fuse_tolerance="0" />
    <inkscape:path-effect
       effect="skeletal"
       id="path-effect4269"
       is_visible="true"
       pattern="M 0,0 1,0"
       copytype="single_stretched"
       prop_scale="1"
       scale_y_rel="false"
       spacing="0"
       normal_offset="0"
       tang_offset="0"
       prop_units="false"
       vertical_pattern="false"
       fuse_tolerance="0" />
    <inkscape:path-effect
       effect="skeletal"
       id="path-effect4265"
       is_visible="true"
       pattern="M 0,0 1,0"
       copytype="single_stretched"
       prop_scale="1"
       scale_y_rel="false"
       spacing="0"
       normal_offset="0"
       tang_offset="0"
       prop_units="false"
       vertical_pattern="false"
       fuse_tolerance="0" />
    <inkscape:path-effect
       effect="skeletal"
       id="path-effect4140"
       is_visible="true"
       pattern="M 0,0 1,0"
       copytype="single_stretched"
       prop_scale="1"
       scale_y_rel="false"
       spacing="0"
       normal_offset="0"
       tang_offset="0"
       prop_units="false"
       vertical_pattern="false"
       fuse_tolerance="0" />
  </defs>
  <sodipodi:namedview
     pagecolor="#ffffff"
     bordercolor="#666666"
     borderopacity="1"
     objecttolerance="10"
     gridtolerance="10"
     guidetolerance="10"
     inkscape:pageopacity="0"
     inkscape:pageshadow="2"
     inkscape:window-width="1312"
     inkscape:window-height="692"
     id="namedview4"
     showgrid="false"
     inkscape:zoom="2.3823344"
     inkscape:cx="52.852476"
     inkscape:cy="95.865781"
     inkscape:window-x="1"
     inkscape:window-y="53"
     inkscape:window-maximized="0"
     inkscape:current-layer="svg2"
     fit-margin-top="0"
     fit-margin-left="0"
     fit-margin-right="0"
     fit-margin-bottom="0"
     showguides="true"
     inkscape:guide-bbox="true">
    <sodipodi:guide
       position="50.51209,41.824514"
       orientation="1,0"
       id="guide8657" />
  </sodipodi:namedview>
  <path
     style="color:#000000;font-style:normal;font-variant:normal;font-weight:normal;font-stretch:normal;font-size:medium;line-height:normal;font-family:sans-serif;text-indent:0;text-align:start;text-decoration:none;text-decoration-line:none;text-decoration-style:solid;text-decoration-color:#000000;letter-spacing:normal;word-spacing:normal;text-transform:none;direction:ltr;block-progression:tb;writing-mode:lr-tb;baseline-shift:baseline;text-anchor:start;white-space:normal;clip-rule:nonzero;display:inline;overflow:visible;visibility:visible;opacity:1;isolation:auto;mix-blend-mode:normal;color-interpolation:sRGB;color-interpolation-filters:linearRGB;solid-color:#000000;solid-opacity:1;fill:#dadada;fill-opacity:1;fill-rule:evenodd;stroke:none;stroke-width:2.1473875;stroke-linecap:butt;stroke-linejoin:miter;stroke-miterlimit:4;stroke-dasharray:none;stroke-dashoffset:0;stroke-opacity:1;color-rendering:auto;image-rendering:auto;shape-rendering:auto;text-rendering:auto;enable-background:accumulate"
     d="m 44.298828,13.607422 c -14.15211,0.352309 -26.618277,8.993935 -36.3070885,18.662494 -3.9398329,2.162873 -2.4167223,4.366869 0.1704306,6.465805 4.3485719,2.255273 -0.7951981,4.972149 -1.3113579,7.297601 1.8479063,1.231732 3.6958128,2.463463 5.5437188,3.695194 -3.0267798,2.530453 1.351783,3.028605 2.998947,4.262636 2.844974,0.647026 2.771255,2.365628 1.386285,4.565647 -1.114404,2.137322 -2.041679,4.190152 1.176972,4.371045 1.787169,0.377542 4.357276,2.023231 5.674354,1.639351 -0.369851,-3.956464 1.732176,-3.907604 4.450089,-2.062459 3.00988,3.090033 -1.025971,10.137359 -1.667898,14.467374 -0.753712,5.554096 -2.662127,10.997552 -2.982224,16.559421 -2.161748,4.695476 -1.019519,10.210679 -2.947964,14.797089 -0.702624,4.58465 -0.593408,8.75719 -1.402867,13.21398 -0.01066,5.35102 -0.391259,11.05885 -0.172022,16.18787 0.20724,7.00385 -0.494339,14.08127 0.527825,21.02319 0.931764,6.06193 7.516906,7.89637 12.782611,7.25459 4.73311,-0.0529 9.46622,-0.10576 14.19933,-0.15864 4.593171,-1.29943 10.965767,1.24275 16.095001,0.0502 4.807564,-1.75786 10.191635,0.6819 15.037811,0.1353 3.661919,-3.21459 2.229634,-8.62532 2.748229,-12.97871 0.146187,-11.25607 1.581408,-22.51605 0.92477,-33.73196 1.894511,-6.22531 -1.750627,-11.69263 -0.724817,-17.76582 C 79.10329,95.915389 80.296383,89.90967 78.339178,84.378264 79.279604,79.136838 76.728846,74.324434 77.234374,69.087538 76.485773,63.948386 73.23724,59.12374 74.194792,53.818884 75.767306,43.006728 76.59347,30.040401 68.143614,21.697295 61.855343,15.640026 52.736798,13.873703 44.298828,13.607422 Z m -0.0039,2.15039 c 10.003823,0.143379 22.010077,3.113128 26.363759,13.194987 3.276442,7.516994 2.515572,15.944815 1.499522,23.857748 C 69.740134,48.756423 72.979111,42.683079 70.787367,38.030835 69.312096,28.447778 60.855914,21.081843 51.325369,20.267361 37.012909,18.02529 23.496229,26.386929 14.316909,36.72372 12.276716,41.569009 10.18265,37.638404 8.077504,35.506857 17.354555,25.387686 30.015688,16.226305 44.294922,15.757812 Z m 1.673828,6.341797 c 8.682495,-0.46196 18.394307,3.479057 21.461144,12.227672 1.435571,3.413786 2.708245,11.053101 1.384559,12.327016 C 66.791338,41.584784 67.610542,33.11153 60.928688,30.036404 51.081577,24.736684 38.740957,27.720925 29.600137,33.171384 23.360872,36.973757 17.910792,42.05592 13.601562,47.951172 10.958658,46.422098 8.0546605,44.906991 12.214311,42.380821 20.727116,32.214817 31.93796,22.270542 45.96875,22.099609 Z m 3.025391,7.375 c 6.736189,-0.494201 14.947833,2.67767 16.118854,10.121769 1.161317,2.272135 -0.23809,8.072901 -1.036349,2.706414 C 63.118332,35.522016 56.247962,31.250474 49.70681,31.905834 36.601918,32.786059 24.465457,41.612779 18.873047,53.390625 17.178656,52.061671 12.254192,51.504214 15.667163,48.913408 23.581672,38.482299 35.440599,29.702301 48.994141,29.474609 Z m 0.767578,4.585938 C 54.059772,32.65681 62.196134,38.291936 60.564808,40.142711 54.523266,37.653037 47.826715,33.748712 40.915037,37.939569 31.782682,42.96247 24.280725,51.764416 21.974609,62.0625 19.980369,61.352769 17.013147,61.08259 19.110582,58.524408 23.137236,45.818236 35.151231,35.754805 48.520184,34.135469 l 1.241535,-0.07492 z m -0.08984,4.208984 c -1.608699,1.606988 -8.963015,1.889819 -11.775643,5.992494 -4.509835,4.398302 -7.377479,10.164233 -9.560294,15.999694 -5.303625,-0.733902 -1.697739,-5.097363 0.151383,-8.003575 4.942499,-6.911382 12.014911,-14.202163 21.184554,-13.988613 z m -2.773437,1.13086 c 0.435865,0.0058 0.104733,-0.04766 0,0 z m 5.521484,0.478515 c 2.66608,0.06311 4.727233,4.322638 0.782349,1.752618 -2.04128,0.134991 -6.201977,1.020576 -0.782349,-1.752618 z m -5.078125,1.841797 c 1.061295,1.232939 0.541724,4.406891 -1.775391,1.841797 -3.449148,0.09923 0.534377,-2.225039 1.775391,-1.841797 z m 10.736328,0.02148 c 3.86747,0.587619 4.239436,2.925339 0.178304,2.761017 -1.568473,2.190349 -0.500685,-3.097717 -0.178304,-2.761017 z m -5.650391,1.939453 c 4.551441,0.225847 4.163798,8.426943 -0.548038,4.326187 -4.363367,2.491531 -2.164639,-4.667944 0.548038,-4.326187 z m -10.826172,0.314453 c -0.953059,2.624699 -3.205178,1.691988 0,0 z m 2.81836,1.535156 c 4.79571,0.72329 4.213553,10.884436 -0.97461,7.152344 -4.92257,4.011451 -1.741862,-7.759764 0.97461,-7.152344 z m 16.501953,0.746094 c 4.21392,1.385022 2.947235,6.19451 -0.919922,4.621094 -5.166378,4.861176 -2.713583,-5.805623 0.919922,-4.621094 z m 4.109375,0.501953 c 2.867377,0.773672 4.951947,4.619613 0.685547,4.417969 -0.0032,-1.494256 -0.209053,-2.998668 -0.685547,-4.417969 z m -25.396484,1.025391 c -0.232517,3.223403 -0.811573,3.732299 -3.914063,2.80664 0.78227,-1.479749 2.230134,-2.590678 3.914063,-2.80664 z m 12.048828,2.333984 c 4.654072,0.01053 6.590933,12.105901 0.693359,7.207031 -3.947653,1.769218 -4.043107,0.344405 -3.297304,-3.412682 0.249392,-1.462122 0.744601,-3.707861 2.603945,-3.794349 z m 16.740234,2.517578 c 2.821333,0.749937 6.260802,9.448642 1.331378,6.171386 -4.528299,2.555316 -2.930836,-1.912643 -4.247394,-4.91748 0.836482,-0.628536 1.818376,-1.298229 2.916016,-1.253906 z m -32.02539,0.05273 c 4.388541,0.572117 2.355645,8.502026 -1.75586,4.990235 -3.630521,2.083915 -0.674366,-5.717233 1.75586,-4.990235 z m 24.861328,0.126954 c 3.448364,0.59525 5.212113,10.823884 0.123046,7.173828 -2.565182,0.199711 -4.224181,2.356276 -3.345703,-1.605469 -0.482407,-2.540601 0.145724,-5.212273 3.222657,-5.568359 z m -17.722657,1.996093 c 5.236442,-0.454518 4.337131,13.432045 -0.283203,8.470703 -5.526014,1.577134 -3.676667,-4.695395 -1.394531,-7.820312 0.470544,-0.388143 1.068929,-0.617535 1.677734,-0.650391 z m 8.021485,4.644531 c 5.946442,-0.736785 6.285338,13.750506 0.412109,8.484376 -6.141276,3.178814 -4.053731,-7.380704 -0.412109,-8.484376 z m -20.699219,0.09375 c 0.63064,0.201431 -1.266745,2.435802 -0.273818,0.708759 l 0.273818,-0.708759 z m 3.982422,0.248047 c 4.849261,0.218277 2.520602,12.679672 -1.61941,8.629743 -5.134094,2.570068 -1.318951,-8.463079 1.61941,-8.629743 z m 34.492187,1.09375 c 4.638635,0.06398 7.074894,9.99635 5.120377,10.165972 -1.834465,-3.519349 -7.125229,-0.401716 -6.969268,-0.147143 0.734792,-3.262807 -3.324211,-9.169918 1.848891,-10.018829 z m -7.720703,1.259766 c 3.765826,0.295251 4.370726,7.776853 2.985702,8.629591 -3.195892,-1.669198 -8.081827,4.261448 -6.784681,-2.018941 0.320169,-2.860778 -0.311477,-6.560689 3.798979,-6.61065 z m -19.724609,3.095703 c 5.14091,0.296612 4.727522,5.606307 3.394531,9.089844 0.883277,4.815846 -4.89489,-0.552198 -7.578125,2.371094 0.310767,-3.598917 -0.854421,-10.905292 4.183594,-11.460938 z m 9,4.748047 c 5.819494,0.227133 5.45816,7.061639 5.051755,11.243833 -1.136195,0.576554 -6.020137,-1.852503 -8.432615,0.566714 -0.01932,-3.789015 -1.668285,-10.809786 3.38086,-11.810547 z m -18.46875,0.572266 c 5.526543,0.214025 3.848784,13.520255 -1.545981,7.887399 -5.19879,2.545999 -0.98594,-7.602798 1.545981,-7.887399 z m 38.121094,0.863281 c 4.441254,0.105657 7.702365,10.609872 4.690727,10.211711 -2.846617,-2.758368 -8.05526,2.259632 -6.5345,-3.695906 -0.132855,-2.063079 0.05767,-5.332404 1.843773,-6.515805 z m -7.751954,1.210937 c 4.883621,0.14637 5.031754,11.284931 2.467198,11.10221 -3.391337,-2.25968 -8.693738,3.608795 -7.111112,-2.750471 -0.139877,-3.618569 -0.158086,-8.122085 4.643914,-8.351739 z m -21.40625,5.402344 c 6.849392,-0.005 2.813762,9.598396 1.834795,11.340941 -3.052521,-2.707268 -9.892965,3.69653 -7.759027,-2.773399 0.100005,-3.984094 0.745341,-8.888642 5.924232,-8.567542 z m -11.412109,2.537109 c 5.645197,-0.217051 3.441036,10.469881 2.227688,10.740768 -2.941157,-2.123659 -8.036294,1.512796 -5.831859,-4.053381 0.488169,-2.348797 0.848406,-5.940248 3.604171,-6.687387 z m 41.541016,2.15625 c 5.352029,-0.903823 9.098452,12.420924 2.930851,9.45307 -2.746751,0.957837 -4.635355,3.679552 -4.091658,-0.813277 0.590039,-3.432491 -4.546663,-7.522562 1.160807,-8.639793 z m -20.185547,0.06836 c 6.286405,-0.0932 5.460858,7.980755 4.888672,12.226562 -2.568967,-3.596035 -8.774446,0.410392 -10.033632,-0.568532 0.04794,-4.382304 -1.305317,-11.399235 5.14496,-11.65803 z m 11.501953,2.65039 c 6.504493,-0.130616 5.678426,8.401924 5.376953,12.152344 -2.738022,-3.735744 -9.287368,1.232727 -10.021484,-1.083984 1.448577,-3.842712 -1.82719,-11.329131 4.644531,-11.06836 z M 40.21875,90.900391 c 6.235583,-0.766373 3.9336,10.425509 2.378442,11.125379 -3.752083,-3.079205 -11.337822,3.96212 -8.621518,-3.874231 -0.152265,-3.969473 1.771298,-7.561633 6.243076,-7.251148 z m -11.580078,1.691406 c 6.57242,0.437142 2.150918,9.059433 2.257812,13.080083 -1.990308,-4.40688 -9.318497,0.96675 -6.935212,-4.83285 0.717014,-2.942044 0.368149,-8.325385 4.6774,-8.247233 z m 46.582031,1.703125 c 3.598936,2.029523 5.728625,14.353538 -1.048828,10.554688 -4.431659,3.28363 -2.800275,-4.39489 -3.613281,-7.31836 1.242276,-1.376123 2.722936,-2.99541 4.662109,-3.236328 z m -23.992187,1.417969 c 6.10116,-0.440101 6.191503,7.020879 5.452624,11.223069 -1.570063,0.44061 -8.123731,-2.68927 -11.013171,0.98396 0.224601,-4.05914 -1.582448,-10.268909 3.62817,-11.802908 l 0.95374,-0.264926 0.978637,-0.139195 z m 12.175781,2.638671 c 6.452504,-0.711375 6.613251,8.643118 5.548828,11.394528 -3.190685,-1.89213 -7.672899,-1.90014 -10.451172,0.83789 1.513361,-4.14828 -2.152285,-12.673366 4.902344,-12.232418 z m -24.455078,4.998048 c 7.242275,-0.70249 4.400353,11.56078 2.685547,12.58789 -1.645911,-1.3317 -4.226435,-1.15646 -7.361244,-0.79344 -5.078644,2.96392 -1.439482,-7.16843 -0.781334,-9.69679 1.388518,-1.45815 3.483041,-2.10122 5.457031,-2.09766 z m -12.38086,2.27734 c 5.886778,0.43941 3.13685,12.12107 1.988182,12.39785 -3.465341,-2.44757 -8.503491,-1.91475 -6.391046,-7.57133 0.318952,-2.27381 1.772326,-4.92943 4.402864,-4.82652 z m 48.392579,1.35547 c 5.421354,-0.48445 6.99834,13.4434 1.02958,8.4688 -3.359512,0.43875 -4.540611,1.5045 -4.402627,-2.8438 0.581571,-2.08064 0.185572,-5.87846 3.373047,-5.625 z m -23.964844,1.24219 c 7.203682,-0.57647 6.652179,8.85653 5.892578,13.08203 -2.820544,-2.05932 -9.855149,-1.12656 -12.008208,-0.34933 -0.05085,-5.0532 -1.342622,-12.63132 6.11563,-12.7327 z m 12.986328,2.3457 c 8.235598,-0.23779 6.640237,9.38461 0.2333,11.0582 -2.368443,2.32946 -6.565281,5.74339 -5.205417,0.0783 1.376316,-4.27733 -2.275357,-11.25127 4.972117,-11.1365 z m -27.470703,6.4961 c 7.908918,-0.95364 6.635964,7.34705 5.1008,12.37206 -1.124548,1.44167 -5.279754,-5.15182 -7.733715,-6.81056 -3.840057,-1.60857 -1.692838,-5.65809 1.744243,-5.51072 l 0.888672,-0.0508 z m 38.708984,0.47265 c 6.51047,1.15895 3.228533,9.38031 3.945326,13.94818 -0.281463,3.14268 0.902676,7.01931 -3.276569,5.08995 -7.725901,1.91025 -12.912227,8.68817 -18.131648,14.2275 -1.708582,-4.46853 -9.304494,-8.90962 -7.461761,-12.98856 6.959855,-7.76525 14.660637,-15.03709 23.811807,-20.08535 l 1.112845,-0.19172 z m -52.398437,0.20117 c 6.997963,2.08423 11.259061,8.68182 16.366587,13.47515 8.806254,9.43732 16.763311,19.74023 23.206159,30.9345 -2.233121,4.62632 -10.443859,-0.16342 -14.972351,1.24731 -5.62761,-1.23235 -6.624398,-10.91519 -11.108047,-15.11345 -4.301902,-5.21215 -8.467518,-12.92216 -15.322426,-14.33647 0.171465,-5.10031 0.04332,-10.22537 0.405105,-15.30995 0.126215,-0.62595 0.800617,-1.0475 1.424973,-0.89709 z m 27.835937,4.3086 c 5.159517,-0.83221 8.944621,4.98605 4.341422,7.7036 -3.617036,2.45672 -7.008666,11.34599 -10.297858,4.31263 -2.245175,-3.44557 -1.049892,-10.92032 3.904678,-11.83758 l 0.957518,-0.13166 1.09424,-0.047 z M 21.8125,135.92773 c 9.607598,6.87436 15.599343,17.58248 21.083984,27.8125 -5.661856,-0.14083 -11.409443,0.63632 -16.99624,-0.38884 -5.651477,-1.94279 -4.791523,-8.81256 -4.845556,-13.65216 0.106588,-4.32999 -0.212629,-8.70764 0.158141,-13.00805 l 0.341859,-0.61306 0.257812,-0.15039 z m 54.765625,2.79493 c 3.219989,1.23295 1.486321,5.7408 1.769607,8.51697 -0.421088,5.40066 0.216341,10.98265 -1.220779,16.21935 -3.363436,0.99151 -9.835861,-0.41817 -12.57965,-0.91284 -0.880818,-5.31834 -9.056353,-9.89185 -1.856692,-13.94706 3.878677,-4.03928 8.165273,-8.77861 13.887514,-9.87642 z"
     id="path8054"
     inkscape:connector-curvature="0" />
</svg>
