<svg xmlns="http://www.w3.org/2000/svg" viewBox="0 0 100 180"><g stroke="#dadada" fill="none" stroke-width="8"><path d="M44.68 164.795l-14.182.16c-1.35.015-2.71-.045-4.03-.336-1.21-.267-2.389-.753-3.349-1.537-1.07-.873-1.822-2.09-2.29-3.39-.675-1.875-.847-3.898-.847-5.891v-16.413c0-.756.277-1.528.81-2.066.254-.257.591-.442.952-.465.458-.03.9.184 1.265.46 5.06 3.805 9.134 8.78 12.706 14.008 3.364 4.925 6.27 10.15 8.965 15.47zM57.6 152.525c2.158-2.175 4.12-4.536 6.253-6.736 2.38-2.455 5.022-4.669 7.943-6.446.906-.552 1.854-1.046 2.863-1.376.82-.268 1.703-.44 2.545-.252.368.081.72.239 1.016.47.326.256.581.595.77.964.57 1.12.623 2.43.58 3.687l-.563 16.675c-.052 1.532-.203 3.118-.939 4.463-.247.452-.581.873-1.032 1.12-.425.232-.938.272-1.41.163-4.235-.977-8.63-1.208-12.956-.788" stroke-width="2.14736"/><path d="M47.684 139.117c3.55-3.993 7.183-7.922 11.117-11.539 4.172-3.835 8.69-7.305 13.558-10.206 1.598-.99 3.727-1.197 5.35-.25 1.563.911 2.503 2.722 2.537 4.531.126 6.618.088 13.256-.676 19.83M42.609 133.325c-.011-1.408-.019-2.819.1-4.222.116-1.36.345-2.725.871-3.985.498-1.192 1.311-2.268 2.397-2.968 1.37-.884 3.048-1.17 4.678-1.174 1.962-.005 4 .379 5.577 1.546a5.709 5.709 0 0 1 1.725 2.057c.457.93.651 1.974.666 3.01" stroke-width="2.14736"/><path d="M43.963 124.322c-.23-4.173-.453-8.374.16-12.508.09-.617.375-1.194.75-1.691.427-.567.968-1.04 1.556-1.437a9.258 9.258 0 0 1 4.49-1.531 7.715 7.715 0 0 1 2.414.192 6.087 6.087 0 0 1 2.182 1.024 6.094 6.094 0 0 1 1.69 1.998c.516.962.8 2.035.94 3.118.442 3.454.01 6.954-.558 10.39" stroke-width="2.14736"/><path d="M44.724 110.51c-.214-3.857-.42-7.74.147-11.561.084-.57.347-1.103.694-1.563.394-.523.895-.961 1.438-1.328a8.556 8.556 0 0 1 4.15-1.415c1.492-.107 3.05.225 4.247 1.124a5.632 5.632 0 0 1 1.563 1.847c.476.889.74 1.88.867 2.881.41 3.192.01 6.427-.515 9.602" stroke-width="2.14736"/><path d="M45.24 97.628c-.199-3.857-.39-7.738.138-11.565.078-.564.32-1.098.649-1.563.364-.518.83-.958 1.343-1.328a7.667 7.667 0 0 1 3.875-1.417 6.241 6.241 0 0 1 2.084.179 5.115 5.115 0 0 1 1.884.946c1.397 1.125 2.056 2.949 2.27 4.73.381 3.195.009 6.426-.482 9.606" stroke-width="2.14736"/><path d="M56.628 84.579c.567-3.584.71-7.24.274-10.84-.143-1.178-.86-2.224-1.736-3.022-.944-.86-2.12-1.483-3.377-1.698a4.687 4.687 0 0 0-1.816.028 3.866 3.866 0 0 0-1.642.816c-.556.471-.974 1.092-1.272 1.757-.403.896-.606 1.872-.708 2.85-.325 3.103-.11 6.238.309 9.33" stroke-width="2.14736"/><path d="M56.226 71.636c.177-1.288.485-2.556.656-3.845.221-1.673.158-3.373-.02-5.052-.117-1.114-.733-2.138-1.555-2.899-.835-.772-1.905-1.312-3.037-1.425a3.852 3.852 0 0 0-3.107 1.119c-1.197 1.23-1.612 3.024-1.768 4.734-.102 1.123-.24 2.247-.224 3.374.015 1.037.173 2.066.294 3.095" stroke-width="2.14736"/><path d="M56.63 61.696c.143-1.1.317-2.2.334-3.308.023-1.51-.157-3.014-.307-4.516-.113-1.13-.675-2.184-1.438-3.024-.745-.82-1.71-1.475-2.795-1.7a3.242 3.242 0 0 0-1.504.028c-.516.14-.985.435-1.359.817-1.16 1.189-1.496 2.955-1.64 4.61-.098 1.144-.223 2.29-.197 3.437.024 1.056.177 2.105.295 3.155" stroke-width="2.14736"/><path d="M48.783 50.865a13.224 13.224 0 0 1-.296-3.482c.053-1.063.226-2.163.814-3.051.476-.719 1.175-1.306 2-1.557.74-.225 1.549-.185 2.287.048.746.236 1.43.66 1.976 1.22.527.541.927 1.22 1.067 1.962.172.917.165 1.874-.094 2.77-.228.794-.614 1.532-.942 2.29" stroke-width="2.14736"/><path d="M48.863 45.195c-.06-.91-.127-1.824-.068-2.735.043-.656.165-1.324.506-1.886.448-.738 1.143-1.34 1.968-1.595.754-.234 1.579-.191 2.333.045.76.238 1.461.666 2.014 1.239.525.543.917 1.235 1.015 1.984.116.893-.132 1.788-.319 2.67M56.226 71.636c.177-1.288.485-2.556.656-3.845.221-1.673.158-3.373-.02-5.052-.117-1.114-.733-2.138-1.555-2.899-.835-.772-1.905-1.312-3.037-1.425a3.852 3.852 0 0 0-3.107 1.119c-1.197 1.23-1.612 3.024-1.768 4.734-.102 1.123-.24 2.247-.224 3.374.015 1.037.173 2.066.294 3.095M36.61 115.986c-.946-.006-1.892.099-2.79.388-.829.268-1.609.704-2.229 1.316-.778.768-1.323 1.793-1.443 2.88 5.155 4.886 9.55 9.563 12.46 12.755-.01-1.408-.018-2.819.101-4.222.116-1.36.345-2.725.871-3.985.114-.273.247-.539.393-.796h-.01c-.104-1.879-.202-3.763-.227-5.645a8.26 8.26 0 0 0-2.538-1.76c-1.147-.51-2.39-.792-3.643-.89-.313-.024-.629-.038-.944-.04z" stroke-width="2.14736"/><path d="M38.961 102.275a9.257 9.257 0 0 0-4.6 1.155c-.619.346-1.197.774-1.67 1.303-.414.465-.746 1.016-.888 1.623-.952 4.07-1.079 8.275-1.194 12.453h.01c.565-.824 1.298-1.53 2.177-1.999 1.438-.767 3.135-.913 4.76-.783 1.955.157 3.955.71 5.43 2.004.277.243.527.516.753.809-.037-2.352.039-4.7.383-7.026.078-.524.3-1.017.594-1.46-.096-1.733-.184-3.472-.204-5.209a5.873 5.873 0 0 0-1.07-1.277 6.087 6.087 0 0 0-2.09-1.201 7.718 7.718 0 0 0-2.39-.392z" stroke-width="2.14736"/><path d="M40.23 89.826a8.558 8.558 0 0 0-4.252 1.068c-.572.32-1.107.714-1.543 1.203-.384.43-.69.94-.821 1.5-.868 3.71-.993 7.545-1.098 11.355.058-.074.114-.15.176-.219.472-.529 1.05-.957 1.669-1.303a9.257 9.257 0 0 1 4.6-1.155c.811.01 1.623.131 2.391.392.766.26 1.486.663 2.09 1.2.417.372.775.806 1.07 1.28-.023-2.075.055-4.145.359-6.198.07-.476.27-.923.534-1.326l-.164.005c-.097-1.867-.19-3.74-.202-5.61-.2-.26-.423-.502-.668-.72-1.118-.995-2.644-1.455-4.14-1.472z" stroke-width="2.14736"/><path d="M41.389 76.99a7.666 7.666 0 0 0-3.979 1.091 5.719 5.719 0 0 0-1.448 1.212c-.366.437-.652.949-.776 1.505-.844 3.77-.974 7.653-1.094 11.514l.164.008c.058-.076.116-.152.179-.223.436-.489.97-.884 1.543-1.203a8.557 8.557 0 0 1 4.252-1.068c1.497.017 3.023.477 4.14 1.472.246.218.469.46.669.72-.013-1.992.066-3.981.34-5.955.077-.564.32-1.097.647-1.563.186-.264.398-.507.63-.732a52.836 52.836 0 0 1-.393-3.97 5.22 5.22 0 0 0-1.013-1.358 5.116 5.116 0 0 0-1.799-1.1 6.241 6.241 0 0 0-2.062-.35z" stroke-width="2.14736"/><path d="M41.628 64.183a3.865 3.865 0 0 0-2.158.715c-.594.423-1.061 1.007-1.414 1.645-.475.86-.759 1.816-.942 2.781-.578 3.056-.624 6.187-.465 9.293.24-.197.495-.376.761-.536a7.666 7.666 0 0 1 3.979-1.09c.7.004 1.403.113 2.062.35a5.116 5.116 0 0 1 1.799 1.099c.417.396.75.86 1.014 1.364-.104-1.779-.1-3.562.086-5.335.103-.977.306-1.952.709-2.849.136-.304.3-.599.488-.874l-.082-.009c-.12-1.025-.278-2.05-.294-3.082a6.306 6.306 0 0 0-.961-1.34c-.87-.935-1.989-1.653-3.225-1.972a4.885 4.885 0 0 0-1.357-.16z" stroke-width="2.14736"/><path d="M43.492 53.756a3.829 3.829 0 0 0-2.339.917c-1.294 1.127-1.857 2.88-2.153 4.57-.195 1.112-.426 2.22-.503 3.346-.07 1.034.002 2.072.037 3.108l.08.015c.25-.307.534-.585.855-.814a3.865 3.865 0 0 1 1.704-.677 4.687 4.687 0 0 1 1.812.122c1.236.319 2.355 1.037 3.225 1.972.274.294.523.616.74.958l.226.042c.01-1.018.126-2.033.219-3.047.095-1.04.287-2.112.692-3.069l-.068-.004c-.118-1.05-.271-2.099-.295-3.155-.014-.622.018-1.243.064-1.863a5.527 5.527 0 0 0-.537-.69c-.769-.839-1.79-1.465-2.908-1.672a3.787 3.787 0 0 0-.85-.059z" stroke-width="2.14736"/><path d="M44.422 44.45a3.086 3.086 0 0 0-.66.046 3.038 3.038 0 0 0-1.422.702c-1.256 1.088-1.736 2.821-2.015 4.46-.194 1.13-.413 2.261-.482 3.407-.064 1.055.002 2.112.032 3.168l.068.01c.31-.592.704-1.13 1.21-1.57.86-.75 2.068-1.065 3.19-.858 1.118.207 2.14.833 2.908 1.672.196.215.377.447.537.691.04-.525.088-1.05.134-1.575.111-1.286.34-2.637.98-3.734l-.119-.004a13.235 13.235 0 0 1-.298-3.44 6.299 6.299 0 0 0-.577-.907c-.675-.88-1.583-1.612-2.645-1.925a3.477 3.477 0 0 0-.84-.142z" stroke-width="2.14736"/><path d="M47.1 40.458c-.83 0-1.639.282-2.375.665-.6.313-1.065.844-1.403 1.43-.461.801-.728 1.7-.927 2.602a3.022 3.022 0 0 1 1.367-.659 3.241 3.241 0 0 1 1.5.097c1.063.313 1.97 1.046 2.646 1.925.217.284.41.589.577.907l.001-.042c.038-.74.137-1.497.39-2.188h-.013c-.06-.91-.128-1.824-.068-2.735.03-.448.098-.901.245-1.323-.05-.041-.1-.081-.153-.12a3.088 3.088 0 0 0-1.787-.56zM63.44 97.28c-1.495-.052-3.04.337-4.203 1.28a5.602 5.602 0 0 0-1.43 1.782c.008.051.017.102.023.154.407 3.173.015 6.388-.506 9.546.046.294.094.589.146.883.279.646.47 1.33.591 2.026h.037a6.281 6.281 0 0 1 1.44-1.878c1.207-1.054 2.832-1.563 4.435-1.577 1.547-.013 3.103.383 4.433 1.173.59.35 1.137.783 1.574 1.314.182.221.343.462.476.716.068-3.797.116-7.617-.579-11.35-.105-.566-.388-1.089-.751-1.536-.414-.508-.93-.927-1.487-1.272a8.555 8.555 0 0 0-4.198-1.262z" stroke-width="2.14736"/><path d="M62.345 84.404a6.05 6.05 0 0 0-1.551.256 5.114 5.114 0 0 0-1.847 1.015c-.647.561-1.118 1.276-1.451 2.064.332 2.932.036 5.894-.397 8.817.101.743.222 1.483.353 2.221.137.42.24.853.314 1.29h.193a5.53 5.53 0 0 1 1.278-1.507c1.162-.943 2.708-1.332 4.204-1.28a8.555 8.555 0 0 1 4.198 1.26c.557.346 1.073.765 1.487 1.273.06.074.113.153.168.231h.165c.056-3.863.104-7.748-.566-11.553-.1-.56-.362-1.084-.706-1.538a5.718 5.718 0 0 0-1.392-1.277 7.667 7.667 0 0 0-3.924-1.272 6.856 6.856 0 0 0-.526 0z" stroke-width="2.14736"/><path d="M62.762 71.588a5.086 5.086 0 0 0-.907.109c-1.25.262-2.4.929-3.312 1.822-.648.635-1.194 1.412-1.46 2.271a39.2 39.2 0 0 1-.17 6.616 42.7 42.7 0 0 0 .682 5.02l.045-.006c.322-.661.749-1.26 1.307-1.745a5.114 5.114 0 0 1 1.847-1.015 6.243 6.243 0 0 1 2.077-.256c1.39.055 2.766.5 3.924 1.272.258.172.505.362.736.57.3-3.096.398-6.225-.04-9.304-.139-.973-.378-1.94-.813-2.822-.323-.653-.763-1.258-1.337-1.708a3.866 3.866 0 0 0-1.67-.754 4.327 4.327 0 0 0-.91-.07z" stroke-width="2.14736"/><path d="M61.406 61.084a3.745 3.745 0 0 0-.426.034c-1.127.155-2.176.734-2.981 1.537a5.287 5.287 0 0 0-1.023 1.422c.077 1.24.068 2.484-.095 3.714a33.55 33.55 0 0 1-.303 1.802c.037.356.082.712.142 1.066.218 1.281.573 2.537.798 3.817l.241-.034c.233-.331.497-.642.784-.923.912-.893 2.062-1.56 3.312-1.822a4.687 4.687 0 0 1 1.816-.04 3.866 3.866 0 0 1 1.67.755c.311.244.582.535.817.853l.08-.012c.084-1.033.204-2.067.18-3.103-.025-1.128-.205-2.246-.349-3.364-.219-1.702-.7-3.48-1.942-4.665a3.846 3.846 0 0 0-2.72-1.037z" stroke-width="2.14736"/><path d="M61.234 51.76a3.505 3.505 0 0 0-.751.103c-1.076.265-2.016.955-2.73 1.802a6.02 6.02 0 0 0-.96 1.564c.102 1.051.187 2.104.17 3.159-.016 1.108-.19 2.208-.334 3.308l-.031-.002c.132.336.227.685.264 1.045.048.447.085.896.113 1.345A5.247 5.247 0 0 1 58 62.654c.805-.802 1.854-1.38 2.981-1.536a3.852 3.852 0 0 1 3.147 1.003 5.344 5.344 0 0 1 1.137 1.624l.068-.007c.078-1.054.193-2.107.178-3.164-.017-1.147-.184-2.287-.325-3.426-.205-1.649-.605-3.402-1.81-4.547a3.038 3.038 0 0 0-1.388-.766c-.247-.057-.5-.08-.753-.074z" stroke-width="2.14736"/><path d="M60.526 45.09c-.38.01-.761.064-1.13.157-.722.183-1.413.52-1.964 1.023-.275.25-.509.548-.687.874a5.6 5.6 0 0 1-.208 1.631c-.089.31-.205.61-.33.906-.086.75-.154 1.502-.198 2.255.343.598.58 1.252.648 1.936.045.454.092.909.136 1.363.234-.568.563-1.1.96-1.57.714-.847 1.654-1.537 2.73-1.802a3.243 3.243 0 0 1 1.504-.028 3.038 3.038 0 0 1 1.388.766c.349.331.628.714.856 1.13l.015-.006c.273-.559.354-1.193.392-1.814.046-.753.008-1.51-.08-2.259a12.901 12.901 0 0 0-.405-2.086c-.132-.458-.265-.941-.584-1.295-.497-.552-1.186-.913-1.911-1.073a4.676 4.676 0 0 0-1.132-.107z" stroke-width="2.14736"/><path d="M58.072 40.668a5.503 5.503 0 0 0-1.877.355c.222.377.38.79.436 1.224.116.893-.132 1.788-.319 2.67l-.087.002c.192.339.334.704.406 1.086.064.343.104.691.114 1.04l.086.057c1.077-1.353 2.613-2.145 5.04-1.85.645.18 1.25.522 1.698 1.019.109.12.195.257.268.401l.01.008c.05-.745-.18-1.486-.487-2.166a7.348 7.348 0 0 0-1.583-2.252c-.698-.675-1.552-1.203-2.491-1.447a4.732 4.732 0 0 0-1.214-.147zM63.973 109.496c-1.603.014-3.228.523-4.435 1.577-.618.539-1.1 1.2-1.468 1.928.028.162.054.324.074.486.166 1.295.21 2.596.168 3.899a39.659 39.659 0 0 1-.336 3.903l-.023.16c-.109.812-.233 1.622-.366 2.427l-.045.002c.155.223.295.457.415.7.457.93.651 1.975.665 3.01l-.759.273c.025.128.046.256.072.384 3.946-3.379 7.902-6.749 12.436-9.54.278-.916.571-1.84.639-2.794.054-.768-.083-1.535-.227-2.291-.114-.604-.413-1.163-.803-1.637-.437-.53-.984-.964-1.574-1.314-1.33-.79-2.886-1.186-4.433-1.173zM44.53 164.694c2.81-.355 5.657-.318 8.48-.093 2.546.203 5.08.543 7.631.656.391.018.78-.085 1.143-.232.442-.18.852-.447 1.168-.805.344-.388.554-.894.576-1.412.032-.727-.257-1.434-.633-2.058-4.266-7.065-8.987-13.858-14.181-20.273-5.41-6.68-11.313-12.95-17.48-18.937-1.533-1.358-3.14-2.651-4.924-3.66-1.063-.6-2.205-1.139-3.424-1.212-.736-.044-1.521.164-2.01.717-.503.57-.67 1.367-.684 2.127l-.338 17.803M21.257 116.674c-.495-2.923-.674-6.05.537-8.755.382-.854.924-1.647 1.641-2.248a4.76 4.76 0 0 1 2.078-1.019 4.735 4.735 0 0 1 4.038 1.085c1.182 1.05 1.7 2.733 1.492 4.3M22.531 106.476c-.009-3.991.512-7.987 1.62-11.82.318-1.1 1.09-2.064 2.109-2.585.97-.495 2.098-.638 3.18-.511 1.013.118 2.021.465 2.8 1.122.337.285.626.634.804 1.038.175.4.23.851.163 1.283" stroke-width="2.14736"/><path d="M24.921 93.09c0-2.102.098-4.21.425-6.288.221-1.407.543-2.809 1.116-4.113.377-.857.87-1.682 1.573-2.3.504-.444 1.127-.761 1.792-.851a3.6 3.6 0 0 1 1.778.236c.562.219 1.078.553 1.525.96.416.377.779.82 1.038 1.32.21.406.362.862.314 1.317" stroke-width="2.14736"/><path d="M26.993 81.618c.167-3.164.492-6.424 1.949-9.239.403-.78.914-1.52 1.597-2.073.498-.404 1.097-.694 1.733-.783.558-.077 1.134.001 1.661.201.513.195.983.5 1.38.88.373.355.686.778.89 1.251.178.414.272.875.191 1.318M29.571 71.234c-.042-2.738.126-5.523 1.015-8.112.51-1.485 1.287-2.971 2.61-3.816.9-.576 2.073-.716 3.067-.32 1.068.425 1.89 1.342 2.391 2.376M31.933 59.788c-.106-1.865-.004-3.798.771-5.497.476-1.044 1.27-1.986 2.335-2.41a3.603 3.603 0 0 1 2.693.03c.82.342 1.512 1 1.849 1.822" stroke-width="2.14736"/><path d="M33.685 52.777c.561-1.926 1.483-3.859 3.132-5.003 1.256-.872 2.828-1.164 4.357-1.211M79.908 120.414l.54-3.37c.244-2.348.262-4.738-.202-7.052-.197-.984-.83-1.837-1.586-2.496a6.606 6.606 0 0 0-2.852-1.466c-.975-.222-2.047-.18-2.914.317-1.004.577-1.565 1.717-1.774 2.856l-.62 3.38M79.033 107.418c.15-1.252.343-2.5.407-3.759.075-1.47-.047-2.946-.289-4.398a16.291 16.291 0 0 0-.658-2.669c-.29-.834-.663-1.655-1.24-2.324-.504-.585-1.218-1.016-1.99-1.047-1.062-.042-2.055.524-2.904 1.165-1.118.845-2.2 1.77-2.985 2.93" stroke-width="2.14736"/><path d="M78.555 96.318c.116-2.807.219-5.656-.415-8.392-.293-1.265-.763-2.505-1.524-3.557a6.943 6.943 0 0 0-3.071-2.365 4.641 4.641 0 0 0-3.928.268c-.895.506-1.721 1.284-1.957 2.285" stroke-width="2.14736"/><path d="M67.458 76.697l.62-3.38c.177-.964.527-1.978 1.326-2.545.3-.213.656-.343 1.021-.378.393-.037.79.027 1.165.15.953.31 1.77.949 2.472 1.665.896.913 1.616 1.99 2.185 3.136.868 1.752 1.204 3.732 1.216 5.687.005.805-.044 1.609-.118 2.41-.054.585-.131 1.168-.168 1.755" stroke-width="2.14736"/><path d="M76.303 75.457c-.024-2.114.086-4.235-.142-6.337-.236-2.174-.921-4.311-2.121-6.14a8.386 8.386 0 0 0-1.537-1.754c-.6-.515-1.282-.948-2.037-1.183-.738-.23-1.55-.24-2.276.025-.93.339-1.675 1.064-2.253 1.869-.253.352-.347.796-.338 1.229.008.4.057.81-.056 1.193" stroke-width="2.14736"/><path d="M74.18 63.2c-.31-2.345-.723-4.69-1.506-6.923-.483-1.377-1.096-2.767-2.169-3.757a3.568 3.568 0 0 0-1.3-.788 3.19 3.19 0 0 0-1.43-.114c-1.199.17-2.258.87-3.19 1.643M70.106 52.022c-.442-1.662-.972-3.366-2.1-4.662a5.04 5.04 0 0 0-1.797-1.32c-.81-.348-1.7-.483-2.582-.497" stroke-width="2.14736"/><path d="M63.482 45.447c-.104-2.38-.615-4.783-1.812-6.844a10.717 10.717 0 0 0-4.248-4.068c-1.84-.97-3.92-1.426-5.996-1.535-2.37-.125-4.751.185-7.055.756-5.32 1.317-10.27 3.97-14.53 7.417-4.513 3.653-8.289 8.305-10.497 13.676l-6.692-3.506c1.285-2.185 2.836-4.206 4.495-6.124a57.488 57.488 0 0 1 7.019-6.839c2.81-2.305 5.846-4.343 9.093-5.977 3.374-1.697 6.986-2.95 10.718-3.539 3.157-.498 6.387-.667 9.552-.221 2.63.37 5.233 1.19 7.425 2.689a12.636 12.636 0 0 1 4.57 5.72c1.112 2.791 1.285 5.884.986 8.873l-3.028-.478z" opacity=".97" stroke-width="2.14736"/><path d="M70.013 51.631c.484-3.552.602-7.167.162-10.725-.418-3.386-1.36-6.739-3.06-9.697a19.068 19.068 0 0 0-7.222-7.135C56.16 22 51.84 21.171 47.571 21.037c-4.237-.133-8.493.584-12.472 2.045-3.818 1.403-7.377 3.457-10.644 5.879-6.26 4.639-11.453 10.554-16.319 16.638l5.408 3.606" stroke-width="2.14736"/><path d="M72.585 57.317c.728-4.617 1.385-9.258 1.508-13.93.12-4.523-.255-9.127-1.834-13.368-.763-2.048-1.818-3.993-3.17-5.71-1.448-1.838-3.23-3.404-5.206-4.656-2.351-1.49-4.96-2.546-7.64-3.296-3.41-.953-6.94-1.425-10.474-1.63-3.975-.23-7.968.464-11.755 1.694-3.901 1.267-7.608 3.092-11.107 5.232a71.86 71.86 0 0 0-9.48 6.952c-2.45 2.117-4.78 4.38-6.868 6.854l5.183 5.52" stroke-width="2.14736"/><path d="M19.504 54.69l-2.709 6.692 5.896 2.071c.558-4.395 2.6-8.491 5.106-12.145A41.725 41.725 0 0 1 39.58 39.87c1.21-.778 2.557-1.326 3.931-1.752a20.285 20.285 0 0 1 4.935-.904c1.621-.085 3.274.043 4.805.584 1.428.504 2.727 1.43 3.538 2.71" stroke-width="2.14736"/><path d="M23.647 59.31l5.258 2.39c2.33-6.676 5.54-13.368 11.039-17.814 1.45-1.171 3.066-2.16 4.832-2.753a9.694 9.694 0 0 1 1.824-.434c.42-.055.846-.082 1.267-.032" stroke-width="2.14736"/></g></svg>
