<svg xmlns="http://www.w3.org/2000/svg" viewBox="0 0 100 180"><path d="M44.299 13.607C30.147 13.96 17.68 22.601 7.992 32.27c-3.94 2.163-2.417 4.367.17 6.466 4.349 2.255-.795 4.972-1.311 7.297l5.544 3.696c-3.027 2.53 1.351 3.028 2.998 4.262 2.845.647 2.772 2.366 1.387 4.566-1.115 2.137-2.042 4.19 1.177 4.37 1.787.378 4.357 2.024 5.674 1.64-.37-3.956 1.732-3.907 4.45-2.062 3.01 3.09-1.026 10.137-1.668 14.467-.753 5.554-2.662 10.998-2.982 16.56-2.162 4.695-1.02 10.21-2.948 14.797-.703 4.584-.593 8.757-1.403 13.214-.01 5.35-.391 11.058-.172 16.187.207 7.004-.494 14.082.528 21.024.932 6.062 7.517 7.896 12.783 7.254l14.199-.158c4.593-1.3 10.966 1.242 16.095.05 4.808-1.758 10.192.682 15.038.135 3.662-3.214 2.23-8.625 2.748-12.979.146-11.256 1.581-22.516.925-33.732 1.894-6.225-1.75-11.692-.725-17.765-1.396-5.644-.203-11.65-2.16-17.18.94-5.242-1.61-10.055-1.105-15.291-.748-5.14-3.997-9.964-3.04-15.27 1.573-10.811 2.4-23.778-6.05-32.12-6.289-6.058-15.407-7.824-23.845-8.09zm-.004 2.15c10.004.144 22.01 3.114 26.364 13.196 3.276 7.517 2.515 15.945 1.5 23.858-2.419-4.055.82-10.128-1.372-14.78-1.475-9.583-9.931-16.95-19.462-17.764-14.312-2.242-27.829 6.12-37.008 16.457-2.04 4.845-4.134.914-6.24-1.217 9.278-10.12 21.939-19.28 36.218-19.75zm1.674 6.343c8.682-.462 18.394 3.479 21.46 12.227 1.436 3.414 2.71 11.053 1.385 12.327-2.023-5.07-1.203-13.542-7.885-16.618-9.847-5.3-22.188-2.315-31.329 3.135-6.24 3.803-11.69 8.885-15.998 14.78-2.643-1.529-5.547-3.044-1.388-5.57C20.727 32.215 31.938 22.27 45.97 22.1zm3.025 7.375c6.736-.495 14.948 2.677 16.119 10.121 1.161 2.273-.238 8.073-1.036 2.707-.959-6.781-7.829-11.053-14.37-10.397-13.105.88-25.242 9.707-30.834 21.485-1.694-1.33-6.619-1.887-3.206-4.478 7.915-10.43 19.774-19.21 33.327-19.438zm.768 4.586c4.298-1.404 12.434 4.23 10.803 6.082-6.042-2.49-12.738-6.394-19.65-2.203-9.132 5.022-16.634 13.824-18.94 24.123-1.995-.71-4.962-.98-2.864-3.539 4.026-12.706 16.04-22.77 29.41-24.389l1.24-.074zm-.09 4.209c-1.609 1.607-8.963 1.89-11.776 5.992-4.51 4.398-7.377 10.164-9.56 16-5.304-.734-1.698-5.098.151-8.004 4.943-6.911 12.015-14.202 21.185-13.988zm-2.774 1.13c.436.006.105-.047 0 0zm5.522.479c2.666.063 4.727 4.323.782 1.753-2.041.135-6.202 1.02-.782-1.753zm-5.078 1.842c1.061 1.233.542 4.407-1.776 1.842-3.449.099.535-2.226 1.776-1.842zm10.736.021c3.868.588 4.24 2.926.178 2.761-1.568 2.19-.5-3.098-.178-2.76zm-5.65 1.94c4.551.225 4.164 8.427-.548 4.326-4.364 2.491-2.165-4.668.548-4.326zm-10.826.314c-.953 2.625-3.206 1.692 0 0zm2.818 1.535c4.796.724 4.213 10.885-.975 7.153-4.922 4.011-1.742-7.76.975-7.153zm16.502.746c4.214 1.385 2.947 6.195-.92 4.621-5.166 4.862-2.714-5.805.92-4.62zm4.11.502c2.867.774 4.951 4.62.685 4.418-.003-1.494-.21-2.998-.686-4.418zm-25.397 1.026c-.233 3.223-.812 3.732-3.914 2.806.782-1.48 2.23-2.59 3.914-2.806zm12.049 2.334c4.654.01 6.59 12.106.693 7.207-3.948 1.769-4.043.344-3.297-3.413.25-1.462.744-3.708 2.604-3.794zm16.74 2.517c2.821.75 6.26 9.449 1.331 6.172-4.528 2.555-2.93-1.913-4.247-4.918.836-.628 1.818-1.298 2.916-1.254zm-32.026.053c4.389.572 2.356 8.502-1.755 4.99-3.63 2.084-.675-5.717 1.755-4.99zm24.862.127c3.448.595 5.212 10.824.123 7.174-2.565.2-4.224 2.356-3.346-1.606-.482-2.54.146-5.212 3.223-5.568zm-17.723 1.996c5.237-.454 4.337 13.432-.283 8.47-5.526 1.578-3.677-4.695-1.395-7.82a2.902 2.902 0 0 1 1.678-.65zm8.022 4.645c5.946-.737 6.285 13.75.412 8.484-6.142 3.179-4.054-7.38-.412-8.484zm-20.7.093c.631.202-1.266 2.436-.273.71l.273-.71zm3.983.248c4.85.219 2.52 12.68-1.62 8.63-5.134 2.57-1.319-8.463 1.62-8.63zm34.492 1.094c4.639.064 7.075 9.996 5.12 10.166-1.834-3.52-7.125-.402-6.969-.147.735-3.263-3.324-9.17 1.849-10.019zm-7.72 1.26c3.765.295 4.37 7.777 2.985 8.63-3.196-1.67-8.082 4.26-6.785-2.02.32-2.86-.311-6.56 3.8-6.61zm-19.725 3.096c5.14.296 4.727 5.606 3.394 9.09.883 4.815-4.895-.553-7.578 2.37.31-3.598-.854-10.905 4.184-11.46zm9 4.748c5.82.227 5.458 7.061 5.051 11.243-1.136.577-6.02-1.852-8.432.567-.02-3.789-1.668-10.81 3.38-11.81zm-18.47.572c5.527.214 3.85 13.52-1.545 7.887-5.199 2.546-.986-7.603 1.546-7.887zm38.122.863c4.441.106 7.702 10.61 4.69 10.212-2.846-2.758-8.055 2.26-6.534-3.696-.133-2.063.058-5.332 1.844-6.516zm-7.752 1.211c4.884.146 5.032 11.285 2.467 11.102-3.391-2.26-8.693 3.61-7.11-2.75-.14-3.619-.159-8.122 4.643-8.352zm-21.406 5.402c6.85-.005 2.814 9.599 1.835 11.341-3.053-2.707-9.893 3.697-7.76-2.773.1-3.984.746-8.889 5.925-8.568zM29.97 80.602c5.645-.217 3.44 10.47 2.227 10.74-2.94-2.123-8.036 1.513-5.831-4.053.488-2.349.848-5.94 3.604-6.687zm41.54 2.156c5.353-.904 9.1 12.42 2.932 9.453-2.747.958-4.636 3.68-4.092-.813.59-3.433-4.547-7.523 1.16-8.64zm-20.185.068c6.287-.093 5.461 7.98 4.889 12.227-2.57-3.596-8.775.41-10.034-.569.048-4.382-1.305-11.399 5.145-11.658zm11.502 2.65c6.505-.13 5.679 8.402 5.377 12.153-2.738-3.736-9.287 1.233-10.021-1.084 1.448-3.843-1.828-11.33 4.644-11.068zM40.218 90.9c6.236-.766 3.934 10.426 2.38 11.126-3.753-3.08-11.339 3.962-8.622-3.874-.153-3.97 1.771-7.562 6.243-7.252zm-11.58 1.692c6.573.437 2.152 9.06 2.258 13.08-1.99-4.407-9.318.967-6.935-4.833.717-2.942.368-8.325 4.678-8.247zm46.583 1.703c3.599 2.03 5.728 14.353-1.05 10.555-4.43 3.283-2.8-4.395-3.612-7.319 1.242-1.376 2.723-2.995 4.662-3.236zm-23.992 1.418c6.1-.44 6.191 7.02 5.452 11.223-1.57.44-8.124-2.69-11.013.984.225-4.06-1.582-10.269 3.628-11.803l.954-.265.979-.14zm12.175 2.639c6.453-.712 6.614 8.643 5.55 11.394-3.192-1.892-7.674-1.9-10.452.838 1.513-4.148-2.152-12.673 4.902-12.232zM38.95 103.35c7.242-.703 4.4 11.56 2.686 12.588-1.646-1.332-4.227-1.157-7.361-.794-5.08 2.964-1.44-7.168-.782-9.697 1.389-1.458 3.483-2.1 5.457-2.097zm-12.38 2.277c5.886.44 3.136 12.121 1.988 12.398-3.466-2.448-8.504-1.915-6.392-7.572.32-2.273 1.773-4.929 4.403-4.826zm48.392 1.355c5.421-.484 6.998 13.444 1.03 8.47-3.36.438-4.541 1.504-4.403-2.845.581-2.08.185-5.878 3.373-5.625zm-23.965 1.243c7.204-.577 6.652 8.856 5.893 13.082-2.82-2.06-9.855-1.127-12.009-.35-.05-5.053-1.342-12.631 6.116-12.732zm12.986 2.345c8.236-.237 6.64 9.385.234 11.059-2.369 2.329-6.566 5.743-5.206.078 1.377-4.278-2.275-11.251 4.972-11.137zm-27.47 6.496c7.909-.953 6.636 7.347 5.1 12.372-1.124 1.442-5.28-5.151-7.733-6.81-3.84-1.609-1.693-5.658 1.744-5.51l.889-.052zm38.709.473c6.51 1.159 3.228 9.38 3.945 13.948-.281 3.143.903 7.02-3.277 5.09-7.725 1.91-12.912 8.688-18.131 14.228-1.709-4.469-9.305-8.91-7.462-12.989 6.96-7.765 14.66-15.037 23.812-20.085l1.113-.192zm-52.399.201c6.998 2.084 11.26 8.682 16.367 13.475 8.806 9.438 16.763 19.74 23.206 30.935-2.233 4.626-10.444-.164-14.972 1.247-5.628-1.232-6.625-10.915-11.108-15.113-4.302-5.212-8.468-12.922-15.323-14.337.172-5.1.044-10.225.405-15.31.127-.626.8-1.047 1.425-.897zm27.836 4.309c5.16-.832 8.945 4.986 4.342 7.703-3.617 2.457-7.009 11.346-10.298 4.313-2.245-3.446-1.05-10.92 3.904-11.838l.958-.131 1.094-.047zm-28.846 13.879c9.608 6.874 15.6 17.582 21.084 27.812-5.661-.14-11.409.637-16.996-.389-5.651-1.942-4.791-8.812-4.845-13.652.106-4.33-.213-8.707.158-13.008l.342-.613.257-.15zm54.766 2.795c3.22 1.233 1.486 5.74 1.77 8.517-.421 5.4.216 10.982-1.221 16.219-3.363.991-9.836-.418-12.58-.913-.88-5.318-9.056-9.892-1.856-13.947 3.878-4.04 8.165-8.779 13.887-9.876z" fill="#dadada" /></svg>
