<?xml version="1.0" encoding="UTF-8" standalone="no"?>
<!-- Created with Inkscape (http://www.inkscape.org/) -->

<svg
   xmlns:dc="http://purl.org/dc/elements/1.1/"
   xmlns:cc="http://creativecommons.org/ns#"
   xmlns:rdf="http://www.w3.org/1999/02/22-rdf-syntax-ns#"
   xmlns:svg="http://www.w3.org/2000/svg"
   xmlns="http://www.w3.org/2000/svg"
   xmlns:sodipodi="http://sodipodi.sourceforge.net/DTD/sodipodi-0.dtd"
   xmlns:inkscape="http://www.inkscape.org/namespaces/inkscape"
   width="1478.312"
   height="1313.1371"
   viewBox="0 0 1478.312 1313.1371"
   id="svg7243"
   version="1.1"
   inkscape:version="0.91 r13725"
   sodipodi:docname="R_L.svg">
  <defs
     id="defs7245">
    <inkscape:path-effect
       effect="spiro"
       id="path-effect8109"
       is_visible="true" />
    <inkscape:path-effect
       effect="spiro"
       id="path-effect8105"
       is_visible="true" />
  </defs>
  <sodipodi:namedview
     id="base"
     pagecolor="#ffffff"
     bordercolor="#666666"
     borderopacity="1.0"
     inkscape:pageopacity="0.0"
     inkscape:pageshadow="2"
     inkscape:zoom="0.35"
     inkscape:cx="80.487128"
     inkscape:cy="335.87641"
     inkscape:document-units="px"
     inkscape:current-layer="layer1"
     showgrid="false"
     fit-margin-top="0"
     fit-margin-left="0"
     fit-margin-right="0"
     fit-margin-bottom="0"
     units="px"
     showguides="false"
     inkscape:guide-bbox="true"
     inkscape:window-width="1916"
     inkscape:window-height="1155"
     inkscape:window-x="7"
     inkscape:window-y="0"
     inkscape:window-maximized="0">
    <sodipodi:guide
       position="-11319.594,1315.2084"
       orientation="0,1"
       id="guide7795" />
    <sodipodi:guide
       position="-11707.493,313.13709"
       orientation="0,1"
       id="guide7799" />
    <sodipodi:guide
       position="6326.7608,1111.1576"
       orientation="0,1"
       id="guide7807" />
    <sodipodi:guide
       position="-11398.386,943.47229"
       orientation="0,1"
       id="guide7809" />
    <sodipodi:guide
       position="-13630.823,1086.914"
       orientation="0,1"
       id="guide7811" />
    <sodipodi:guide
       position="-10203.375,349.50258"
       orientation="0,1"
       id="guide7813" />
    <sodipodi:guide
       position="-10288.929,501.70852"
       orientation="0,1"
       id="guide7817" />
    <sodipodi:guide
       position="-10313.571,953.85139"
       orientation="0,1"
       id="guide7821" />
    <sodipodi:guide
       position="7599.9998,616.18286"
       orientation="0,1"
       id="guide8093" />
    <sodipodi:guide
       position="-4147.143,470.27995"
       orientation="0,1"
       id="guide8156" />
    <sodipodi:guide
       position="-4105.0845,482.84272"
       orientation="0,1"
       id="guide8158" />
    <sodipodi:guide
       position="7683.3958,1246.5181"
       orientation="0,1"
       id="guide8177" />
    <sodipodi:guide
       position="7523.7918,1018.2236"
       orientation="0,1"
       id="guide8179" />
    <sodipodi:guide
       position="6326.7608,943.47229"
       orientation="1,0"
       id="guide8194" />
    <sodipodi:guide
       position="24708.572,696.99507"
       orientation="0,1"
       id="guide8981" />
    <sodipodi:guide
       position="11707.857,88.13709"
       orientation="0,1"
       id="guide9329" />
    <sodipodi:guide
       position="19520.715,1185.28"
       orientation="0,1"
       id="guide10654" />
    <sodipodi:guide
       position="11818.96,2190.0005"
       orientation="0,1"
       id="guide10728" />
    <sodipodi:guide
       position="11029.021,2418.295"
       orientation="1,0"
       id="guide10736" />
    <sodipodi:guide
       position="11791.686,2190.0005"
       orientation="1,0"
       id="guide10756" />
  </sodipodi:namedview>
  <metadata
     id="metadata7248">
    <rdf:RDF>
      <cc:Work
         rdf:about="">
        <dc:format>image/svg+xml</dc:format>
        <dc:type
           rdf:resource="http://purl.org/dc/dcmitype/StillImage" />
        <dc:title></dc:title>
      </cc:Work>
    </rdf:RDF>
  </metadata>
  <g
     inkscape:label="Capa 1"
     inkscape:groupmode="layer"
     id="layer1"
     transform="translate(-11507.482,-484.65646)">
    <path
       style="color:#000000;font-style:normal;font-variant:normal;font-weight:normal;font-stretch:normal;font-size:medium;line-height:normal;font-family:sans-serif;text-indent:0;text-align:start;text-decoration:none;text-decoration-line:none;text-decoration-style:solid;text-decoration-color:#000000;letter-spacing:normal;word-spacing:normal;text-transform:none;direction:ltr;block-progression:tb;writing-mode:lr-tb;baseline-shift:baseline;text-anchor:start;white-space:normal;clip-rule:nonzero;display:inline;overflow:visible;visibility:visible;opacity:1;isolation:auto;mix-blend-mode:normal;color-interpolation:sRGB;color-interpolation-filters:linearRGB;solid-color:#000000;solid-opacity:1;fill:#000000;fill-opacity:1;fill-rule:nonzero;stroke:none;stroke-width:70;stroke-linecap:butt;stroke-linejoin:miter;stroke-miterlimit:4;stroke-dasharray:none;stroke-dashoffset:1.39220297;stroke-opacity:1;color-rendering:auto;image-rendering:auto;shape-rendering:auto;text-rendering:auto;enable-background:accumulate"
       d="m 11973.727,547.8418 c -64.823,-1e-5 -118.123,53.29867 -118.123,118.12109 0,64.82241 53.3,118.12306 118.123,118.12305 64.822,10e-6 118.121,-53.30064 118.121,-118.12305 0,-64.82242 -53.299,-118.1211 -118.121,-118.12109 z m 0,70 c 26.991,-1e-5 48.121,21.12949 48.121,48.12109 0,26.9916 -21.13,48.12305 -48.121,48.12305 -26.992,0 -48.123,-21.13145 -48.123,-48.12305 0,-26.9916 21.131,-48.1211 48.123,-48.12109 z"
       id="path9176"
       inkscape:connector-curvature="0" />
    <path
       style="color:#000000;font-style:normal;font-variant:normal;font-weight:normal;font-stretch:normal;font-size:medium;line-height:normal;font-family:sans-serif;text-indent:0;text-align:start;text-decoration:none;text-decoration-line:none;text-decoration-style:solid;text-decoration-color:#000000;letter-spacing:normal;word-spacing:normal;text-transform:none;direction:ltr;block-progression:tb;writing-mode:lr-tb;baseline-shift:baseline;text-anchor:start;white-space:normal;clip-rule:nonzero;display:inline;overflow:visible;visibility:visible;opacity:1;isolation:auto;mix-blend-mode:normal;color-interpolation:sRGB;color-interpolation-filters:linearRGB;solid-color:#000000;solid-opacity:1;fill:#000000;fill-opacity:1;fill-rule:evenodd;stroke:none;stroke-width:70;stroke-linecap:butt;stroke-linejoin:miter;stroke-miterlimit:4;stroke-dasharray:none;stroke-dashoffset:0;stroke-opacity:1;color-rendering:auto;image-rendering:auto;shape-rendering:auto;text-rendering:auto;enable-background:accumulate"
       d="m 11823.695,842.60156 c -78.184,36.22212 -131.4,115.14336 -131.4,219.09764 0,69.7874 33.806,130.5381 85.539,171.2324 51.733,40.6944 120.859,62.9377 195.893,62.9375 154.202,-10e-5 281.431,-116.2062 281.431,-246.1699 0,-106.92678 -72.924,-180.71896 -149.406,-201.02537 -38.241,-10.15321 -79.332,-7.80124 -112.803,13.82031 -33.47,21.62155 -54.568,62.83111 -54.568,112.64453 l 0,248.41213 c -46.428,-5.644 -87.241,-22.0171 -117.268,-45.6367 -37.458,-29.4654 -58.818,-68.2995 -58.818,-116.2149 0,-81.78744 35.01,-129.72509 90.826,-155.58397 l -29.426,-63.51367 z m 239.172,70.38282 c 7.732,-0.0373 16.125,1.01057 24.92,3.3457 46.907,12.45401 97.371,58.03515 97.371,133.36912 0,73.0592 -75.659,157.2303 -176.777,173.377 l 0,-247.93753 c 0,-32.27762 9.75,-45.57697 22.551,-53.8457 8,-5.16796 19.048,-8.24639 31.935,-8.30859 z"
       id="path9178"
       inkscape:connector-curvature="0" />
    <path
       style="color:#000000;font-style:normal;font-variant:normal;font-weight:normal;font-stretch:normal;font-size:medium;line-height:normal;font-family:sans-serif;text-indent:0;text-align:start;text-decoration:none;text-decoration-line:none;text-decoration-style:solid;text-decoration-color:#000000;letter-spacing:normal;word-spacing:normal;text-transform:none;direction:ltr;block-progression:tb;writing-mode:lr-tb;baseline-shift:baseline;text-anchor:start;white-space:normal;clip-rule:nonzero;display:inline;overflow:visible;visibility:visible;opacity:1;isolation:auto;mix-blend-mode:normal;color-interpolation:sRGB;color-interpolation-filters:linearRGB;solid-color:#000000;solid-opacity:1;fill:#000000;fill-opacity:1;fill-rule:nonzero;stroke:none;stroke-width:70;stroke-linecap:butt;stroke-linejoin:miter;stroke-miterlimit:4;stroke-dasharray:none;stroke-dashoffset:1.39220297;stroke-opacity:1;color-rendering:auto;image-rendering:auto;shape-rendering:auto;text-rendering:auto;enable-background:accumulate"
       d="m 12568.555,844.12305 c -124.627,0 -226.409,101.77969 -226.409,226.40625 0,124.6265 101.782,226.4082 226.409,226.4082 80.271,0 129.622,-32.8755 182.523,-78.7676 l -45.871,-52.875 c -50.687,43.9716 -72.74,61.6426 -136.652,61.6426 -86.796,0 -156.409,-69.6126 -156.409,-156.4082 0,-86.79566 69.613,-156.40625 156.409,-156.40625 43.398,0 82.251,17.46668 110.595,45.81054 l 49.498,-49.49804 c -40.932,-40.93182 -97.78,-66.3125 -160.093,-66.3125 z"
       id="path9182"
       inkscape:connector-curvature="0" />
    <path
       style="color:#000000;font-style:normal;font-variant:normal;font-weight:normal;font-stretch:normal;font-size:medium;line-height:normal;font-family:sans-serif;text-indent:0;text-align:start;text-decoration:none;text-decoration-line:none;text-decoration-style:solid;text-decoration-color:#000000;letter-spacing:normal;word-spacing:normal;text-transform:none;direction:ltr;block-progression:tb;writing-mode:lr-tb;baseline-shift:baseline;text-anchor:start;white-space:normal;clip-rule:nonzero;display:inline;overflow:visible;visibility:visible;opacity:1;isolation:auto;mix-blend-mode:normal;color-interpolation:sRGB;color-interpolation-filters:linearRGB;solid-color:#000000;solid-opacity:1;fill:#000000;fill-opacity:1;fill-rule:evenodd;stroke:none;stroke-width:70;stroke-linecap:butt;stroke-linejoin:miter;stroke-miterlimit:4;stroke-dasharray:none;stroke-dashoffset:0;stroke-opacity:1;color-rendering:auto;image-rendering:auto;shape-rendering:auto;text-rendering:auto;enable-background:accumulate"
       d="m 11997.111,1370.2793 c -97.864,0 -176.82,75.3207 -176.82,171.4687 0,55.9975 21.648,102.915 55.539,133.6934 22.299,20.2507 49.249,33.4976 77.863,40.2852 l 0.483,25.8535 69.988,-1.3086 -0.381,-20.4004 c 17.985,-1.6643 37.019,-5.336 55.512,-13.1953 27.193,-11.5564 55.637,-36.8948 59.953,-73.8379 3.587,-30.7038 -11.59,-59.4599 -33.174,-74.6758 -21.583,-15.2159 -48.954,-20.1078 -75.26,-12.2012 -38.17,11.4725 -73.68,47.1696 -77.834,96.2579 -11.223,-4.579 -21.466,-10.766 -30.089,-18.5977 -19.482,-17.692 -32.6,-42.9713 -32.6,-81.8731 0,-59.7359 42.673,-101.4687 106.82,-101.4687 55.452,0 76.799,28.9824 76.799,28.9824 l 54.051,-44.4785 c 0,0 -47.357,-54.5039 -130.85,-54.5039 z m 57.616,242.1504 c 3.973,-0.1153 8.345,1.0631 11.015,2.9453 3.56,2.5096 4.713,3.0536 3.979,9.3418 -0.983,8.4079 -4.19,11.7511 -17.805,17.5371 -7.885,3.3509 -18.418,5.6799 -29.285,7.1484 0.382,-24.5732 10.166,-30.9445 28.332,-36.4043 1.158,-0.3479 2.439,-0.5299 3.764,-0.5683 z"
       id="path4971"
       inkscape:connector-curvature="0" />
    <path
       style="color:#000000;font-style:normal;font-variant:normal;font-weight:normal;font-stretch:normal;font-size:medium;line-height:normal;font-family:sans-serif;text-indent:0;text-align:start;text-decoration:none;text-decoration-line:none;text-decoration-style:solid;text-decoration-color:#000000;letter-spacing:normal;word-spacing:normal;text-transform:none;direction:ltr;block-progression:tb;writing-mode:lr-tb;baseline-shift:baseline;text-anchor:start;white-space:normal;clip-rule:nonzero;display:inline;overflow:visible;visibility:visible;opacity:1;isolation:auto;mix-blend-mode:normal;color-interpolation:sRGB;color-interpolation-filters:linearRGB;solid-color:#000000;solid-opacity:1;fill:#2657fb;fill-opacity:0.69940479;fill-rule:evenodd;stroke:none;stroke-width:70;stroke-linecap:butt;stroke-linejoin:miter;stroke-miterlimit:4;stroke-dasharray:none;stroke-dashoffset:0;stroke-opacity:1;color-rendering:auto;image-rendering:auto;shape-rendering:auto;text-rendering:auto;enable-background:accumulate"
       d="m 11954.533,1231.9219 c -86.72,56.7659 -127.785,90.6786 -155.31,107.3008 -27.526,16.6221 -41.159,19.7923 -95.545,21.3378 l 1.988,69.9727 c 58.423,-1.6602 93.739,-9.6469 129.742,-31.3887 36.004,-21.7417 73.049,-53.3978 157.463,-108.6543 l -38.338,-58.5683 z"
       id="path4973"
       inkscape:connector-curvature="0" />
    <path
       style="color:#000000;font-style:normal;font-variant:normal;font-weight:normal;font-stretch:normal;font-size:medium;line-height:normal;font-family:sans-serif;text-indent:0;text-align:start;text-decoration:none;text-decoration-line:none;text-decoration-style:solid;text-decoration-color:#000000;letter-spacing:normal;word-spacing:normal;text-transform:none;direction:ltr;block-progression:tb;writing-mode:lr-tb;baseline-shift:baseline;text-anchor:start;white-space:normal;clip-rule:nonzero;display:inline;overflow:visible;visibility:visible;opacity:1;isolation:auto;mix-blend-mode:normal;color-interpolation:sRGB;color-interpolation-filters:linearRGB;solid-color:#000000;solid-opacity:1;fill:#000000;fill-opacity:1;fill-rule:evenodd;stroke:none;stroke-width:70;stroke-linecap:butt;stroke-linejoin:miter;stroke-miterlimit:4;stroke-dasharray:none;stroke-dashoffset:0;stroke-opacity:1;color-rendering:auto;image-rendering:auto;shape-rendering:auto;text-rendering:auto;enable-background:accumulate"
       d="m 12476.992,1362 c -55.693,0 -97.775,32.8844 -120.138,70.7383 -22.364,37.8539 -30.032,80.3395 -30.032,115.4316 0,98.0893 59.492,175.5371 59.492,175.5371 l 56.34,-41.5429 c 0,0 -45.832,-65.3911 -45.832,-133.9942 0,-23.6933 6.69,-56.7912 20.299,-79.8261 13.609,-23.035 29.113,-36.3438 59.871,-36.3438 23.643,0 41.761,10.6001 53.451,28.1465 11.691,17.5464 16.748,42.4983 6.973,73.0898 -32.367,101.2985 39.376,194.0039 127.744,194.0039 46.157,0 86.656,-21.0358 112.045,-53.8105 25.39,-32.7747 37.055,-75.3623 37.055,-120.9785 0,-100.4943 -73.885,-179.9199 -73.885,-179.92 l -52.814,45.9415 c 0,0 56.699,70.6912 56.699,133.9785 0,33.4485 -8.95,60.7563 -22.393,78.1093 -13.443,17.3531 -29.994,26.6797 -56.707,26.6797 -40.63,0 -81.338,-39.2557 -61.066,-102.6992 15.535,-48.6209 8.652,-97.112 -15.397,-133.207 -24.048,-36.0951 -65.465,-59.334 -111.705,-59.334 z"
       id="path4975"
       inkscape:connector-curvature="0" />
    <path
       style="color:#000000;font-style:normal;font-variant:normal;font-weight:normal;font-stretch:normal;font-size:medium;line-height:normal;font-family:sans-serif;text-indent:0;text-align:start;text-decoration:none;text-decoration-line:none;text-decoration-style:solid;text-decoration-color:#000000;letter-spacing:normal;word-spacing:normal;text-transform:none;direction:ltr;block-progression:tb;writing-mode:lr-tb;baseline-shift:baseline;text-anchor:start;white-space:normal;clip-rule:nonzero;display:inline;overflow:visible;visibility:visible;opacity:1;isolation:auto;mix-blend-mode:normal;color-interpolation:sRGB;color-interpolation-filters:linearRGB;solid-color:#000000;solid-opacity:1;fill:#2657fb;fill-opacity:0.69940479;fill-rule:evenodd;stroke:none;stroke-width:70;stroke-linecap:butt;stroke-linejoin:miter;stroke-miterlimit:4;stroke-dasharray:none;stroke-dashoffset:0;stroke-opacity:1;color-rendering:auto;image-rendering:auto;shape-rendering:auto;text-rendering:auto;enable-background:accumulate"
       d="m 12562.016,1231.9219 -38.338,58.5683 c 84.414,55.2565 121.459,86.9126 157.463,108.6543 36.003,21.7418 71.319,29.7285 129.742,31.3887 l 1.988,-69.9727 c -54.386,-1.5455 -68.019,-4.7157 -95.545,-21.3378 -27.526,-16.6222 -68.59,-50.5349 -155.31,-107.3008 z"
       id="path5012"
       inkscape:connector-curvature="0" />
    <path
       style="color:#000000;font-style:normal;font-variant:normal;font-weight:normal;font-stretch:normal;font-size:medium;line-height:normal;font-family:sans-serif;text-indent:0;text-align:start;text-decoration:none;text-decoration-line:none;text-decoration-style:solid;text-decoration-color:#000000;letter-spacing:normal;word-spacing:normal;text-transform:none;direction:ltr;block-progression:tb;writing-mode:lr-tb;baseline-shift:baseline;text-anchor:start;white-space:normal;clip-rule:nonzero;display:inline;overflow:visible;visibility:visible;opacity:1;isolation:auto;mix-blend-mode:normal;color-interpolation:sRGB;color-interpolation-filters:linearRGB;solid-color:#000000;solid-opacity:1;fill:#2657fb;fill-opacity:0.69940479;fill-rule:evenodd;stroke:none;stroke-width:70;stroke-linecap:butt;stroke-linejoin:miter;stroke-miterlimit:4;stroke-dasharray:none;stroke-dashoffset:0;stroke-opacity:1;color-rendering:auto;image-rendering:auto;shape-rendering:auto;text-rendering:auto;enable-background:accumulate"
       d="m 12670.588,1194.7793 -38.338,58.5664 c 84.414,55.2565 121.459,86.9126 157.463,108.6543 36.003,21.7417 71.318,29.7304 129.74,31.3906 l 1.988,-69.9726 c -54.386,-1.5455 -68.017,-4.7177 -95.543,-21.3399 -27.525,-16.6222 -68.59,-50.5329 -155.31,-107.2988 z"
       id="path5014"
       inkscape:connector-curvature="0" />
  </g>
</svg>
